# Blender 5.0.0
# www.blender.org
mtllib monkey.mtl
o Suzanne
v 2.84069257090509 2.33002576652154 1.11762254965869
v 1.91261492059775 1.40194811621419 1.11762254965869
v 2.93013748972915 2.37316336916996 0.963401197652702
v 1.86947731794932 1.31250319739014 0.963401197652702
v 2.95773182026184 2.44500592974163 0.792022404844318
v 1.79763475737766 1.28490886685745 0.792022404844318
v 2.84305069764288 2.14536561209892 0.784172230366365
v 2.09727507502036 1.39958998947641 0.784172230366365
v 2.84667794618103 2.14173836356077 0.957121138455098
v 2.10090232355852 1.39596274093825 0.957121138455098
v 2.78653292257795 2.20188338716385 1.11448252005989
v 2.04075729995543 1.45610776454134 1.11448252005989
v 2.68325135698661 2.13943892223494 1.15821749046109
v 2.10320176488435 1.55938933013267 1.15821749046109
v 2.64425669296916 2.02927718893568 1.03444299357595
v 2.21336349818361 1.59838399415013 1.03444299357595
v 2.58070053998952 1.99339645081096 0.883361671168761
v 2.24924423630833 1.66194014712976 0.883361671168761
v 2.32974965516076 2.07861918379913 1.03413475685031
v 2.16402150332016 1.91289103195853 1.03413475685031
v 2.4416164228182 2.09933493761416 1.14577149357595
v 2.14330574950513 1.80102426430108 1.14577149357595
v 2.57834241325174 2.17805660523357 1.21681199046109
v 2.06458408188571 1.66429827386755 1.21681199046109
v 2.53254986861027 2.29014041061127 1.28126474046109
v 1.95250027650801 1.71009081850901 1.28126474046109
v 2.37155959269838 2.30197428920646 1.25709924357595
v 1.94066639791282 1.87108109442091 1.25709924357595
v 2.22906526470916 2.34503172609132 1.17047067116876
v 1.89760896102796 2.01357542241013 1.17047067116876
v 2.34788971418766 2.64052659555414 1.18846948036637
v 1.60211409156514 1.89475097293163 1.18846948036637
v 2.45916101421729 2.52925529552451 1.2735273884551
v 1.71338539159477 1.783479672902 1.2735273884551
v 2.57842151835513 2.40999479138667 1.28440477005989
v 1.83264589573261 1.66421916876416 1.28440477005989
v 2.68999108252875 2.48072725489788 1.24066979965869
v 1.76191343222141 1.55264960459053 1.24066979965869
v 2.65744038945836 2.64586046944074 1.1860574476527
v 1.59678021767854 1.58520029766092 1.1860574476527
v 2.60609654498147 2.79664120502199 1.07913140484432
v 1.44599948209729 1.63654414213781 1.07913140484432
v 2.86007974105067 2.7083861607934 0.91234993444312
v 1.53425452632589 1.38256094606862 0.91234993444312
v 2.85179333345864 2.58409004691295 1.0544322272515
v 1.65855064020634 1.39084735366065 1.0544322272515
v 2.7979314189454 2.43907817921747 1.16606766493904
v 1.80356250790182 1.44470926817389 1.16606766493904
v 2.81450423412946 2.4390771185573 1.18636643437834
v 1.80356356856199 1.42813645298983 1.18636643437834
v 2.69938666862259 2.48790342332793 1.26682702005989
v 1.75473726379136 1.5432540184967 1.26682702005989
v 2.5764989159466 2.4119173937952 1.32657037518074
v 1.83072329332408 1.66614177117269 1.32657037518074
v 2.52951557815102 2.27660082522629 1.31757004654383
v 1.96603986189299 1.71312510896826 1.31757004654383
v 2.57419788363051 2.14905338316634 1.24725754654383
v 2.09358730395295 1.66844280348878 1.24725754654383
v 2.69456954548898 2.11154685788834 1.18280404654383
v 2.13109382923095 1.54807114163031 1.18280404654383
v 2.71092387406404 2.27749243567776 1.25740693126348
v 1.96514825144153 1.53171681305524 1.25740693126348
v 2.813314359534 2.1751019502078 1.13321137518074
v 2.06753873691149 1.42932632758528 1.13321137518074
v 2.86444063596055 2.32284945598997 1.13206102005989
v 1.91979123112932 1.37820005115874 1.13206102005989
v 2.12023133862222 2.12240934849706 1.28639649357595
v 2.23342615961904 2.00921452750025 1.32928804654383
v 3.13511479449485 1.10752589262443 0.444215108856296
v 2.82986608259502 1.41277460452426 0.774639520059889
v 2.71615687829261 1.52648380882668 0.894545990461087
v 3.21294326067254 1.02969742644674 0.353605138455098
v 2.06718231768562 2.17545836943366 1.08613946092706
v 1.89990893268388 2.34273175443541 1.16859102012467
v 1.00602807826611 3.23661260885318 -0.0365829640419225
v 1.15302215234073 3.08961853477855 -0.684336487346226
v 1.6175550451341 2.62508564198519 -1.02303193126348
v 2.28651171318438 1.9561289739349 -0.743801434507897
v 2.80730736180494 1.8662265200999 0.59008393444312
v 2.37641416701938 1.43533332531435 0.59008393444312
v 3.15709967011025 1.74845362437143 0.412732020124666
v 2.49418706274786 1.08554101700904 0.412732020124666
v 3.43534662132772 1.55306968841408 0.219373020124666
v 2.6895709987052 0.807294065791567 0.219373020124666
v 3.6106111896565 1.41095287177377 0.0221452436407247
v 2.83168781534552 0.632029497462788 0.0221452436407247
v 3.61526889982163 1.32343002502816 -0.0290180920408215
v 2.91921066209113 0.627371787297651 -0.0290180920408215
v 3.49592967880897 1.12788681820386 -0.00600165123842589
v 3.11475386891542 0.746711008310316 -0.00600165123842589
v 3.33212359904682 0.910517088072467 0.012725154844318
v 2.99626933749691 2.17444899992972 0.584645243640725
v 2.06819168718957 1.24637134962237 0.584645243640725
v 3.11428036306869 2.47075729329926 0.670965579322271
v 1.77188339382002 1.1283603240506 0.670965579322271
v 3.0994928901079 2.89986620652172 0.689805756915084
v 1.34277448059757 1.14314779701139 0.689805756915084
v 2.95301503645618 3.11263532090967 1.09356987524552
v 1.13000536620961 1.28962565066311 1.09356987524552
v 2.76191342063541 2.98885450889348 1.17518006604791
v 1.25378617822581 1.48072726648387 1.17518006604791
v 2.45539650549387 2.83133259888135 1.3442601976527
v 1.41130808823794 1.78724418162541 1.3442601976527
v 2.15442891096893 2.76769613803663 1.5223401088563
v 1.47494454908266 2.08821177615035 1.5223401088563
v 2.02872496621412 2.54537202458636 1.52348916493904
v 1.69726866253292 2.21391572090517 1.52348916493904
v 2.13325562214295 2.24196758644881 1.34341957925749
v 2.00067310067047 2.10938506497633 1.34341957925749
v 2.3251715804291 2.26549716489527 1.31527193437834
v 1.97714352222401 1.91746910669019 1.31527193437834
v 2.38006303801066 2.12774269205358 1.22309204965869
v 2.11489799506571 1.86257764910862 1.22309204965869
v 2.64425669296916 2.02927718893568 1.03444299357595
v 2.21336349818361 1.59838399415013 1.03444299357595
v 2.8776037706568 2.16053204529735 0.9251049180539
v 2.08210864182193 1.36503691646249 0.9251049180539
v 2.94227016279841 2.34445894157681 0.919666227251505
v 1.89818174554248 1.30037052432087 0.919666227251505
v 2.95588938361687 2.61257651822719 0.982970671168761
v 1.63006416889209 1.28675130350241 0.982970671168761
v 2.87199484606959 2.72961668614259 1.06500192116876
v 1.51302400097669 1.3706458410497 1.06500192116876
v 2.7670857602332 2.75166063539851 1.14389184253185
v 1.49098005172077 1.47555492688609 1.14389184253185
v 2.55637862975938 2.59776795314336 1.2618086384551
v 1.64487273397592 1.68626205735991 1.2618086384551
v 2.3578015207044 2.4151692523048 1.33598916493904
v 1.82747143481449 1.88483916641489 1.33598916493904
v 3.21405296950444 1.02858771761485 0.379762358856296
v 3.28700523890799 1.18765486078813 0.414918608856296
v 3.05498582633116 0.955635448211293 0.414918608856296
v 3.39050688209858 1.10072709344177 0.296582052773552
v 3.14191359367752 0.852133805020701 0.296582052773552
v 3.36727107902838 1.00795212956338 0.241127783334249
v 3.2346885575559 0.875369608090905 0.241127783334249
v 3.30401357842131 0.938627108697979 0.225119947652702
v 2.698473435718 1.54416725140128 0.827794579257494
v 2.64409728000069 1.5985434071186 0.858661743575947
v 2.75899674712712 1.69908947672477 0.852801993575947
v 2.54355121039452 1.48364393999216 0.852801993575947
v 2.85976091511372 1.64804481495052 0.804357079257494
v 2.59459587216876 1.38287977200557 0.804357079257494
v 2.87159638469916 1.55334633010495 0.747333993575947
v 2.68929435701434 1.37104430242012 0.747333993575947
v 2.9433006244254 2.14455469774111 0.837634977251505
v 2.09808598937818 1.29934006269389 0.837634977251505
v 3.05716924169628 2.49472490562389 0.852914816047911
v 1.7479157814954 1.185471445423 0.852914816047911
v 3.02439991991538 2.75951151866129 0.933795710927062
v 1.483129168458 1.21824076720391 0.933795710927062
v 2.91209921891893 2.9049599713462 1.13374375685031
v 1.33768071577309 1.33054146820035 1.13374375685031
v 2.85550166631901 2.84554675699753 1.25437822413664
v 1.39709393012175 1.38713902080028 1.25437822413664
v 2.50562919225013 2.6650891451765 1.44532724046109
v 1.57755154194279 1.73701149486915 1.44532724046109
v 2.30764808115305 2.59790521332862 1.56638406598313
v 1.64473547379066 1.93499260596624 1.56638406598313
v 2.22145251128968 2.45208137061516 1.56910248734623
v 1.79055931650413 2.02118817582961 1.56910248734623
v 2.28181549117168 2.17627073268021 1.41832940166468
v 2.06636995443907 1.96082519594761 1.41832940166468
v 2.77808671378888 1.72971901627536 0.979296960862285
v 2.51292167084392 1.46455397333041 0.979296960862285
v 3.13113088060378 1.55897687714529 0.589551552773552
v 2.683663809974 1.1115098065155 0.589551552773552
v 3.39694887382682 1.37602189918238 0.365744947652702
v 2.86661878793691 0.845691813292466 0.365744947652702
v 3.50873494539062 1.2973814579867 0.247407842531853
v 2.94525922913259 0.733905741728669 0.247407842531853
v 3.54513137360816 1.19469376903292 0.136500401729457
v 3.04794691808637 0.697509313511127 0.136500401729457
v 3.48490657247008 1.10576217285429 0.124780901729458
v 3.136878514265 0.757734114649208 0.124780901729458
v 3.32938757273156 0.913253114387724 0.123212286449109
v 2.46358059453913 1.77906009258016 0.978987974136644
v 2.33359539030791 1.90904529681138 1.15277954965869
v 2.42520393916127 2.51349498568852 1.32155199357595
v 1.72914570143076 1.81743674795802 1.32155199357595
v 2.56390962642504 2.02675911889933 1.07974732925749
v 2.21588156821995 1.67873106069425 1.07974732925749
v 2.47032032008127 2.05405716450686 1.14263016493904
v 2.18858352261243 1.77232036703802 1.14263016493904
v 3.26658721890687 1.22464675663349 0.438356108856296
v 3.0179939304858 0.976053468212418 0.438356108856296
v 3.01097717502422 1.39739166393566 0.640294579257494
v 2.84524902318363 1.23166351209506 0.640294579257494
v 2.92811309910392 1.31452758801536 0.640294579257494
v 2.81632702754013 1.42631365957916 0.718036743575947
v 2.88624645537317 1.55526801395483 0.809795020059889
v 2.68737267316446 1.35639423174611 0.809795020059889
v 2.89290601515175 1.63147146943638 0.865249490461087
v 2.61116921768291 1.34973467196753 0.865249490461087
v 2.773646041344 1.70101405835212 0.915264520059889
v 2.54162662876716 1.46899464577529 0.915264520059889
v 2.69189206248416 1.63361163989525 0.921123520059889
v 2.60902904722403 1.55074862463513 0.921123520059889
v 2.74708217243829 1.495558514681 0.923422181263482
v 2.73828099331209 1.60379658491155 0.944139960862285
v 2.63884410220773 1.50435969380719 0.944139960862285
v 2.79517521906576 1.64633925026225 0.938280960862285
v 2.59630143685704 1.44746546805353 0.938280960862285
v 2.88462013788981 1.59003996180631 0.905844431263482
v 2.65260072531297 1.35802054922948 0.905844431263482
v 2.86057433902044 1.54779449993944 0.857820375180739
v 2.69484618717985 1.38206634809884 0.857820375180739
v 2.81359100122487 1.42904968589442 0.828523875180739
v 2.97598857768105 1.81355394985204 0.486185848761574
v 2.42908673726725 1.26665210943824 0.486185848761574
v 2.89483006644902 1.69583867887534 0.741894552773552
v 2.54680200824394 1.34781062067026 0.741894552773552
v 2.97598963834122 1.64782685867161 0.689160552773552
v 2.59481382844768 1.26665104877807 0.689160552773552
v 2.89371996938856 1.84610517325251 0.533060848761574
v 2.39653551386677 1.34892071773072 0.533060848761574
v 3.28966109945969 0.952979587659599 0.236838697652702
v 3.33220376481038 1.00987381341326 0.242697697652703
v 3.23276687370602 0.910436922308903 0.242697697652703
v 3.35129373147214 1.09022073785587 0.308301552773552
v 3.15241994926342 0.89134695564715 0.308301552773552
v 3.28781813248463 1.15369633684337 0.387190724136644
v 3.08894435027592 0.954822554634654 0.387190724136644
v 3.18697341050591 1.05566727661338 0.266556256850307
v 3.261848282318 1.17966618701001 0.300141842531853
v 3.06297450010928 0.98079240480129 0.300141842531853
v 3.30682885194147 1.13468561738653 0.222821286449109
v 3.10795506973276 0.935811835177811 0.222821286449109
v 3.28884767555296 1.05322990267068 0.183375401729457
v 3.1894107844486 0.953793011566324 0.183375401729457
v 3.24630592876092 0.996334758358367 0.177515651729457
v 2.51700698472311 2.09023563644549 1.17893602005989
v 2.1524050506738 1.72563370239618 1.17893602005989
v 2.58684677712268 2.05354147441404 1.12191293437834
v 2.18909921270525 1.65579390999661 1.12191293437834
v 2.48483327267154 2.47043952802249 1.30669266493904
v 1.7722011590968 1.75780741444775 1.30669266493904
v 2.43400564861755 2.388684630604 1.32113168437834
v 1.85395605651529 1.80863503850174 1.32113168437834
v 2.61297512169913 2.52459758535938 1.30355393437834
v 1.71804310175991 1.62966556542015 1.30355393437834
v 2.76375624550895 2.67212713486263 1.16690828333425
v 1.57051355225665 1.47888444161034 1.16690828333425
v 2.84188297583063 2.6437199107533 1.1098851976527
v 1.59892077636598 1.40075771128865 1.1098851976527
v 2.91556797304727 2.55346103769244 1.02942461197116
v 1.68917964942685 1.32707271407202 1.02942461197116
v 2.91467477160555 2.33890658108121 1.0098551384551
v 1.90373410603808 1.32796591551374 1.0098551384551
v 2.85526261791706 2.1828731980371 1.01100549357595
v 2.05976748908219 1.38737806920223 1.01100549357595
v 2.67547866026857 2.04777260652827 1.09690477005989
v 2.19486808059101 1.56716202685071 1.09690477005989
v 2.45353152783712 2.17028496917571 1.23752977005989
v 2.07235571794358 1.78910915928216 1.23752977005989
v 2.41491476339714 2.27519299435193 1.29612352005989
v 1.96744769276736 1.82772592372214 1.29612352005989
v 2.44169605825168 2.2981290843894 1.25395791493904
v 1.94451160272989 1.80094462886761 1.25395791493904
v 2.45767340580792 2.19928660025268 1.20708291493904
v 2.0433540868666 1.78496728131136 1.20708291493904
v 2.6652701805981 2.09112883788721 1.07817666493904
v 2.15151184923208 1.57737050652119 1.07817666493904
v 2.82544650227318 2.21268931368097 1.00828522413664
v 2.02995137343832 1.4171941848461 1.00828522413664
v 2.87546321196936 2.34497463166962 1.0012771680539
v 1.89766605544966 1.36717747514993 1.0012771680539
v 2.86392547619782 2.53881227380565 1.0309947272515
v 1.70382841331364 1.37871521092147 1.0309947272515
v 2.80762671807197 2.61168490777573 1.0837287272515
v 1.63095577934356 1.43501396904732 1.0837287272515
v 2.73667629828185 2.63291582135349 1.13489411197116
v 1.60972486576579 1.50596438883743 1.13489411197116
v 2.59943500598407 2.52156382523021 1.26724732925749
v 1.72107686188907 1.64320568113522 1.26724732925749
v 2.45967631608154 2.3795857176639 1.29340454965869
v 1.86305496945539 1.78296437103775 1.29340454965869
v 2.50221951176232 2.4530532889317 1.27896607925749
v 1.78958739818758 1.74042117535696 1.27896607925749
v 2.57663723679203 2.09689664511281 1.10318482925749
v 2.14574404200648 1.66600345032726 1.10318482925749
v 2.51811708178357 2.13884292427704 1.14420007925749
v 2.10379776284225 1.72452360533572 1.14420007925749
v 2.1371013572901 2.33755874240602 1.13730484564671
v 1.90508194471327 2.10553932982918 1.13730484564671
v 2.04581347149099 2.61114653456961 1.29979723036636
v 1.63149415254967 2.19682721562829 1.29979723036636
v 2.16101081453286 2.79426198616117 1.28692887524552
v 1.44837870095812 2.08162987258643 1.28692887524552
v 2.41973188653075 2.85042334200023 1.13657684876157
v 1.39221734511905 1.82290880058853 1.13657684876157
v 2.68703854882332 2.99743811996933 0.979214717156783
v 1.24520256714996 1.55560213829596 0.979214717156783
v 2.83781875407449 3.09524908181889 0.903463526354387
v 1.1473916053004 1.4048219330448 0.903463526354387
v 2.98984843789172 2.89350201310965 0.610185789628747
v 1.34913867400963 1.25279224922757 0.610185789628747
v 2.9789627338396 2.53978366179211 0.537882316112688
v 1.70285702532718 1.26367795327968 0.537882316112688
v 2.92006627024393 2.2506520671827 0.538611612035933
v 1.99198861993659 1.32257441687535 0.538611612035933
v 1.44935061927466 2.79329006784462 1.04933105290311
v 1.17568213101742 3.06695855610186 0.636793897994011
v 1.94441034484328 2.298230342276 -1.0192752272515
v 2.64415582331112 1.59848486380816 -0.102133855185627
v 3.2627991085115 0.979841578607784 -0.133645473645613
v 3.04277443638707 1.19986625073222 -0.156971651173649
v 2.81505645685102 1.42758423026826 -0.0116365062944983
v 2.71540252802641 1.52723815909288 0.00207321722156012
v 2.83825374807366 3.21082273344797 0.246823045923245
v 1.03181795367132 1.40438693904563 0.246823045923245
v 2.71374059647295 3.3519097608929 0.179341588796407
v 0.890730926226382 1.52890009064634 0.179341588796407
v 2.46566367057631 3.41768678042506 -0.369110421233538
v 0.824953906694222 1.77697701654298 -0.369110421233538
v 1.83546116925278 3.3849766743862 -0.5852611680539
v 0.857664012733087 2.4071795178665 -0.5852611680539
v 2.9805886630944 2.8198966513265 0.0561817172863372
v 1.42274403579279 1.26205202402488 0.0561817172863372
v 2.7789001376956 2.72327450341222 -0.306872789693524
v 1.51936618370706 1.46374054942368 -0.306872789693524
v 2.58010507236171 3.02150645985047 -0.564040085551992
v 1.22113422726881 1.66253561475758 -0.564040085551992
v 2.07523020720579 2.88004259348824 -0.821625842531853
v 1.36259809363105 2.1674104799135 -0.821625842531853
v 2.90828948607044 1.83153565657063 0.264062730431142
v 2.41110503054865 1.33435120104884 0.264062730431142
v 2.82897394181347 1.79484255519936 0.0243611121007106
v 2.44779813191993 1.41366674530581 0.0243611121007106
v 3.28397186700739 1.57186192126193 -0.0359161246897072
v 2.67077876585736 0.95866882011189 -0.0359161246897072
v 3.05292490307719 1.72004586993201 0.132436760029945
v 2.52259481718728 1.1897157840421 0.132436760029945
v 3.52027268116215 1.41842624368764 -0.167960355250404
v 2.82421444343165 0.722368005957131 -0.167960355250404
v 3.16130129415318 1.37965006627918 -0.0913677960527992
v 2.8629906208401 1.08133939296611 -0.0913677960527992
v 2.93965030454538 1.56815542551886 0.062545319227549
v 2.67448526160042 1.30299038257391 0.062545319227549
v 3.39567830313771 1.19499044218665 -0.140654828766462
v 3.04765024493263 0.846962383981571 -0.140654828766462
v 2.83956085139151 1.86711866088145 0.347243585551992
v 2.37552202623783 1.40307983572778 0.347243585551992
v 2.8017565922996 1.88835116544947 0.439002612035933
v 2.35428952166981 1.44088409481969 0.439002612035933
v 2.7598092524752 1.91372462942964 0.520612802838329
v 2.32891605768964 1.48283143464409 0.520612802838329
v 2.79087286746631 1.89923489028276 -0.0798459603064761
v 2.34340579683653 1.45176781965298 -0.0798459603064761
v 2.58238448222467 2.29002318188888 -0.579431996820362
v 1.9526175052304 1.66025620489461 -0.579431996820362
v 2.33639049026369 2.63545406495422 -0.811590579322271
v 1.60718662216506 1.9062501968556 -0.811590579322271
v 1.60235222140844 3.60151174638631 0.153103624689707
v 0.641128940732976 2.64028846571085 0.153103624689707
v 1.71067045740256 3.49319351039219 0.605928032713663
v 0.749447176727092 2.53197022971673 0.605928032713663
v 1.94401845364885 3.2598455141459 0.943133556017967
v 0.982795172973386 2.29862223347044 0.943133556017967
v 2.35728689127175 2.86315095236723 0.950759585551992
v 1.37948973475206 1.88535379584753 0.950759585551992
v 2.69694929467989 3.08696214389677 0.741083763144805
v 1.15567854322251 1.54569139243939 0.741083763144805
v 2.52545227495353 3.05958538141442 0.70519821722156
v 1.18305530570486 1.71718841216576 0.70519821722156
v 2.18394690457033 3.41766462764185 0.598385545923245
v 0.824976059477434 2.05869378254896 0.598385545923245
v 2.5161359360646 3.41693189982878 0.584254763209582
v 0.82570878729051 1.72650475105469 0.584254763209582
v 2.3374622175781 3.59560561831528 0.310659322471964
v 0.647035068804007 1.90517846954119 0.310659322471964
v 2.00830694621299 3.59330458599919 0.30878226950408
v 0.649336101120096 2.23433374090629 0.30878226950408
v 1.94031012078848 3.6613014114237 -0.068711256915084
v 0.581339275695582 2.30233056633081 -0.068711256915084
v 2.28078647843343 3.65228135745994 -0.062545319227549
v 0.590359329659341 1.96185420868585 -0.062545319227549
v 2.1638044655999 3.38808968172027 -0.51506203956397
v 0.854551005399012 2.07883622151938 -0.51506203956397
v 2.32352417082269 2.9466310577083 -0.692832964041922
v 1.29600962941099 1.91911651629659 -0.692832964041922
v 2.58226725350228 3.4005179672831 -0.0177733652155712
v 0.842122719836182 1.66037343361701 -0.0177733652155712
v 2.78881194421234 2.31561513247805 0.0639203683304318
v 1.92702555464124 1.45382874290694 0.0639203683304318
v 2.64461205153485 2.50953453136789 -0.420500499935223
v 1.73310615575139 1.59802863558444 -0.420500499935223
v 2.56851024216847 3.56343137593362 0.000225443982033224
v 0.679209311185667 1.67413044495081 0.000225443982033224
v 3.00455627541903 2.87879417558234 -0.267848513209582
v 1.36384651153694 1.23808441170026 -0.267848513209582
v 3.14268811750811 3.30413592843095 -0.502418378425153
v 0.938504758688335 1.09995256961118 -0.502418378425153
v 3.20218057906168 3.7584017982434 -0.517165085551992
v 0.484238888875886 1.04046010805761 -0.517165085551992
v 3.03690996223203 4.07282669106942 -0.30779770083234
v 0.169813996049871 1.20573072488726 -0.30779770083234
v 2.74038463114222 4.1207608550585 -0.16717270083234
v 0.12187983206079 1.50225605597706 -0.16717270083234
v 2.60336196755495 3.81031856933633 -0.0485279080239557
v 0.43232211778296 1.63927871956433 -0.0485279080239557
v 2.66491482203241 3.73219183901464 -0.0649560529031061
v 0.510448848104644 1.57772586508688 -0.0649560529031061
v 2.77182469682207 3.98988389827429 -0.179311760029945
v 0.252756788844994 1.47081599029722 -0.179311760029945
v 2.98275137456506 3.9446853723719 -0.310937730431142
v 0.297955314747383 1.25988931255423 -0.310937730431142
v 3.11850505845348 3.69292304285523 -0.469140480431142
v 0.549717644264052 1.12413562866581 -0.469140480431142
v 3.08942167062268 3.34083062079249 -0.42509782234241
v 0.9018100663268 1.1532190164966 -0.42509782234241
v 2.99383104499556 3.00552805163405 -0.225261848891128
v 1.23711263548523 1.24880964212372 -0.225261848891128
v 2.65299971701348 3.54523316182485 -0.014633335616769
v 0.697407525294438 1.5896409701058 -0.014633335616769
v 2.69080305754674 3.5571472061836 -0.146986552903106
v 0.685493480935687 1.55183762957255 -0.146986552903106
v 2.96734628119324 3.14802146106462 -0.291594999935223
v 1.09461922605467 1.27529440592604 -0.291594999935223
v 3.02868117939178 3.41814286654727 -0.476991203947201
v 0.824497820572013 1.2139595077275 -0.476991203947201
v 3.05857707257065 3.70313152252571 -0.508164756915084
v 0.539509164593576 1.18406361454863 -0.508164756915084
v 2.96477072850663 3.89637475769409 -0.390977256915084
v 0.346265929425195 1.27786995861266 -0.390977256915084
v 2.80215505367002 3.92640791105822 -0.298797921233538
v 0.316232776061065 1.44048563344926 -0.298797921233538
v 2.70049835667331 3.71318218021797 -0.209029319227549
v 0.529458506901315 1.54214233044598 -0.209029319227549
v 2.63886519433077 3.39363953266696 -0.0572199999352229
v 0.849001154452326 1.60377549278851 -0.0572199999352229
v 2.70507681963354 3.31085615284031 -0.226300131540014
v 0.931784534278975 1.53756386748575 -0.226300131540014
v 2.69397407786117 3.15622862145174 -0.284893881540014
v 1.08641206566755 1.54866660925812 -0.284893881540014
v 2.76744111879889 3.21534410198649 -0.290752881540014
v 1.02729658513279 1.4751995683204 -0.290752881540014
v 2.85688748651168 3.17561724048605 -0.343487631540014
v 1.06702344663323 1.3857532006076 -0.343487631540014
v 2.8524468140668 3.11376665219469 -0.366925131540014
v 1.12887403492459 1.39019387305248 -0.366925131540014
v 2.85466715028924 2.92924428828742 -0.0913379672863372
v 1.31339639883186 1.38797353683004 -0.0913379672863372
v 2.81404853623582 2.95329114781696 -0.240850674413176
v 1.28934953930232 1.42859215088347 -0.240850674413176
v 2.74835221279731 3.01898747125547 -0.214273144814373
v 1.22365321586381 1.49428847432198 -0.214273144814373
v 2.66808492378818 3.2649829121052 -0.121672749935223
v 0.977657775014089 1.57455576333111 -0.121672749935223
v 2.7026379968021 3.42930362129999 -0.163415996820362
v 0.813337065819292 1.54000269031719 -0.163415996820362
v 2.68081253415517 3.45112908394692 -0.240316243705502
v 0.791511603172368 1.56182815296411 -0.240316243705502
v 2.8275881216208 3.1386253446407 -0.427816243705502
v 1.10401534247859 1.41505256549849 -0.427816243705502
v 2.84031467132762 3.208761810194 -0.404378743705502
v 1.03387887692529 1.40232601579166 -0.404378743705502
v 2.75804606303514 3.24131303359448 -0.357503743705502
v 1.00132765352481 1.48459462408415 -0.357503743705502
v 2.67740232333728 3.18937425181986 -0.345784993705502
v 1.05326643529943 1.56523836378201 -0.345784993705502
v 2.68850400444948 3.34400072254826 -0.287191243705502
v 0.898639964571027 1.55413668266981 -0.287191243705502
v 2.70242042875176 3.7444036171873 -0.291788566112688
v 0.498237069931986 1.54022025836753 -0.291788566112688
v 2.80822112503961 3.95348747005675 -0.371409082437131
v 0.289153217062535 1.43441956207967 -0.371409082437131
v 2.97194544804794 3.93891742304479 -0.457729967156783
v 0.303723264074499 1.27069523907135 -0.457729967156783
v 3.06989632173319 3.74153177957552 -0.564768082437131
v 0.501108907543766 1.17274436538609 -0.564768082437131
v 3.00796595590684 3.45543196587645 -0.54803170083234
v 0.787208721242836 1.23467473121245 -0.54803170083234
v 2.93116742102604 3.18420032123182 -0.356775746820362
v 1.05844036588747 1.31147326609324 -0.356775746820362
v 2.68444070125198 3.58008343832259 -0.229747848826351
v 0.662557248796697 1.5581999858673 -0.229747848826351
v 2.79148889688708 3.34045272121501 -0.344215628425153
v 0.902187965904271 1.45115179023221 -0.344215628425153
v 2.88012131036306 3.35125719884339 -0.389521263144805
v 0.891383488275895 1.36251937675623 -0.389521263144805
v 2.87242984006876 3.49153119061017 -0.383241203947201
v 0.751109496509116 1.37021084705053 -0.383241203947201
v 2.79622783347595 3.48487018194285 -0.327786184507897
v 0.757770505176434 1.44641285364334 -0.327786184507897
v 2.7843923638905 3.61271429715654 -0.311358039628747
v 0.629926389962743 1.45824832322878 -0.311358039628747
v 2.86473943043463 3.61523236719289 -0.356662375310293
v 0.627408319926396 1.37790125668466 -0.356662375310293
v 2.89707110656594 3.69890933668983 -0.349233260029945
v 0.543731350429458 1.34556958055335 -0.349233260029945
v 2.81480249827345 3.73146056009031 -0.302358260029945
v 0.511180127028981 1.42783818884583 -0.302358260029945
v 2.54809222216735 3.86558831472393 -0.301096582437131
v 0.377052372395355 1.69454846495194 -0.301096582437131
v 2.72654692371477 4.16774419285407 -0.358848964041922
v 0.0748964942652157 1.51609376340452 -0.358848964041922
v 3.03358005927921 4.10930434571069 -0.426862802838329
v 0.133336341408593 1.20906062784007 -0.426862802838329
v 3.18146482524665 3.84540881279467 -0.649097993640725
v 0.397231874324615 1.06117586187264 -0.649097993640725
v 3.04132901222378 3.40549503371527 -0.703824467156783
v 0.837145653404012 1.2013116748955 -0.703824467156783
v 2.89905225228491 3.01744170776424 -0.519996878425153
v 1.22519897935505 1.34358843483438 -0.519996878425153
v 2.47817318256287 3.58747717480298 -0.210178375310293
v 0.655163512316302 1.76446750455642 -0.210178375310293
vn 0.6650 -0.2008 0.7194
vn -0.6650 -0.2008 0.7194
vn 0.8294 -0.3036 0.4689
vn -0.8294 -0.3036 0.4689
vn 0.4155 -0.7933 0.4449
vn -0.4155 -0.7933 0.4449
vn 0.3600 -0.5089 0.7820
vn -0.3600 -0.5089 0.7820
vn -0.0787 -0.5394 0.8384
vn 0.0787 -0.5394 0.8384
vn -0.2696 -0.8413 0.4685
vn 0.2696 -0.8413 0.4685
vn -0.7707 -0.3352 0.5420
vn 0.7707 -0.3352 0.5420
vn -0.4689 -0.1940 0.8617
vn 0.4689 -0.1940 0.8617
vn -0.4767 0.1907 0.8581
vn 0.4767 0.1907 0.8581
vn -0.7672 0.3264 0.5521
vn 0.7672 0.3264 0.5521
vn -0.2519 0.8173 0.5182
vn 0.2519 0.8173 0.5182
vn -0.0949 0.5696 0.8164
vn 0.0949 0.5696 0.8164
vn 0.3667 0.5370 0.7597
vn -0.3667 0.5370 0.7597
vn 0.4141 0.7672 0.4898
vn -0.4141 0.7672 0.4898
vn 0.8277 0.2952 0.4771
vn -0.8277 0.2952 0.4771
vn 0.6713 0.1971 0.7145
vn -0.6713 0.1971 0.7145
vn 0.8111 0.3244 -0.4867
vn -0.8111 0.3244 -0.4867
vn 0.2052 0.8206 -0.5334
vn -0.2052 0.8206 -0.5334
vn -0.4223 0.7806 -0.4607
vn 0.4223 0.7806 -0.4607
vn -0.8241 0.3225 -0.4658
vn 0.8241 0.3225 -0.4658
vn -0.8137 -0.3487 -0.4650
vn 0.8137 -0.3487 -0.4650
vn -0.4223 -0.7806 -0.4607
vn 0.4223 -0.7806 -0.4607
vn 0.2052 -0.8206 -0.5334
vn -0.2052 -0.8206 -0.5334
vn 0.7995 -0.3510 -0.4875
vn -0.7995 -0.3510 -0.4875
vn 0.4000 -0.0623 0.9144
vn -0.4000 -0.0623 0.9144
vn 0.3069 -0.1754 0.9354
vn -0.3069 -0.1754 0.9354
vn 0.0945 -0.1835 0.9785
vn -0.0945 -0.1835 0.9785
vn -0.0624 -0.0283 0.9977
vn 0.0624 -0.0283 0.9977
vn -0.0624 0.0260 0.9977
vn 0.0624 0.0260 0.9977
vn 0.0996 0.1729 0.9799
vn -0.0996 0.1729 0.9799
vn 0.3036 0.1656 0.9383
vn -0.3036 0.1656 0.9383
vn 0.4002 0.0572 0.9147
vn -0.4002 0.0572 0.9147
vn 0.1231 -0.8616 0.4924
vn -0.1231 -0.8616 0.4924
vn 0.2190 -0.8647 0.4520
vn -0.2190 -0.8647 0.4520
vn 0.5902 -0.4550 0.6668
vn -0.5902 -0.4550 0.6668
vn 0.7689 -0.0506 0.6374
vn -0.7689 -0.0506 0.6374
vn 0.7796 0.0900 0.6197
vn -0.7796 0.0900 0.6197
vn 0.3241 -0.8188 0.4739
vn -0.3241 -0.8188 0.4739
vn 0.3857 -0.6629 0.6417
vn -0.3857 -0.6629 0.6417
vn 0.6895 -0.4193 0.5906
vn -0.6895 -0.4193 0.5906
vn 0.6588 -0.3634 0.6588
vn -0.6588 -0.3634 0.6588
vn 0.5465 0.3707 0.7509
vn -0.5465 0.3707 0.7509
vn 0.5064 0.6464 0.5706
vn -0.5064 0.6464 0.5706
vn 0.6092 0.5167 0.6015
vn -0.6092 0.5167 0.6015
vn -0.0441 0.6610 0.7491
vn 0.0441 0.6610 0.7491
vn -0.7246 0.3187 0.6110
vn 0.7246 0.3187 0.6110
vn -0.5880 0.5554 0.5880
vn 0.5880 0.5554 0.5880
vn 0.5361 -0.3909 0.7482
vn -0.5361 -0.3909 0.7482
vn 0.2207 -0.4690 0.8552
vn -0.2207 -0.4690 0.8552
vn -0.0794 -0.5321 0.8429
vn 0.0794 -0.5321 0.8429
vn -0.0825 -0.6575 0.7490
vn 0.0825 -0.6575 0.7490
vn 0.0457 -0.5667 0.8226
vn -0.0457 -0.5667 0.8226
vn 0.2784 -0.2130 0.9365
vn -0.2784 -0.2130 0.9365
vn 0.3813 -0.1824 0.9063
vn -0.3813 -0.1824 0.9063
vn 0.3357 -0.2878 0.8969
vn -0.3357 -0.2878 0.8969
vn 0.3762 0.0603 0.9246
vn -0.3762 0.0603 0.9246
vn -0.1352 0.2680 0.9539
vn 0.1352 0.2680 0.9539
vn 0.3961 -0.4321 0.8102
vn -0.3961 -0.4321 0.8102
vn 0.1856 -0.2474 0.9510
vn -0.1856 -0.2474 0.9510
vn 0.0099 -0.1948 0.9808
vn -0.0099 -0.1948 0.9808
vn 0.0721 -0.6966 0.7138
vn -0.0721 -0.6966 0.7138
vn 0.1863 -0.5723 0.7986
vn -0.1863 -0.5723 0.7986
vn 0.3157 -0.2708 0.9094
vn -0.3157 -0.2708 0.9094
vn 0.3063 -0.0265 0.9516
vn -0.3063 -0.0265 0.9516
vn 0.3266 -0.1306 0.9361
vn -0.3266 -0.1306 0.9361
vn -0.0137 0.0574 0.9983
vn 0.0137 0.0574 0.9983
vn -0.0026 -0.0656 0.9978
vn 0.0026 -0.0656 0.9978
vn -0.0000 -0.0000 1.0000
vn 0.8174 -0.5744 -0.0442
vn -0.8174 -0.5744 -0.0442
vn 0.9494 0.2297 -0.2144
vn -0.9494 0.2297 -0.2144
vn 0.0825 0.9073 -0.4124
vn -0.0825 0.9073 -0.4124
vn -0.8836 0.3555 0.3047
vn 0.8836 0.3555 0.3047
vn 0.4207 -0.8797 0.2218
vn -0.4207 -0.8797 0.2218
vn 0.2873 -0.5747 0.7663
vn -0.2873 -0.5747 0.7663
vn -0.6542 0.6019 0.4580
vn 0.6542 0.6019 0.4580
vn 0.1052 0.7892 0.6051
vn -0.1052 0.7892 0.6051
vn 0.7582 0.2916 0.5832
vn -0.7582 0.2916 0.5832
vn 0.3889 -0.7130 0.5834
vn -0.3889 -0.7130 0.5834
vn 0.0463 0.2314 0.9718
vn -0.0463 0.2314 0.9718
vn 0.0335 -0.4018 0.9151
vn -0.0335 -0.4018 0.9151
vn -0.4452 -0.1610 0.8809
vn 0.4452 -0.1610 0.8809
vn -0.2182 -0.4364 0.8729
vn 0.2182 -0.4364 0.8729
vn 0.4341 -0.1290 0.8916
vn -0.4341 -0.1290 0.8916
vn 0.3008 0.0501 0.9524
vn -0.3008 0.0501 0.9524
vn 0.8123 0.3010 0.4996
vn -0.8123 0.3010 0.4996
vn 0.8753 0.2574 0.4093
vn -0.8753 0.2574 0.4093
vn 0.9385 0.1601 0.3060
vn -0.9385 0.1601 0.3060
vn 0.2237 -0.6539 0.7227
vn -0.2237 -0.6539 0.7227
vn -0.1536 -0.1997 0.9677
vn 0.1536 -0.1997 0.9677
vn -0.2733 -0.1025 0.9565
vn 0.2733 -0.1025 0.9565
vn -0.0976 0.1952 0.9759
vn 0.0976 0.1952 0.9759
vn -0.1582 0.9494 0.2713
vn 0.1582 0.9494 0.2713
vn -0.6934 0.7082 0.1328
vn 0.6934 0.7082 0.1328
vn -1.0000 -0.0000 -0.0000
vn 1.0000 -0.0000 -0.0000
vn 0.3051 -0.9450 0.1181
vn -0.3051 -0.9450 0.1181
vn 0.0298 -0.2981 0.9541
vn -0.0298 -0.2981 0.9541
vn 0.1353 -0.3479 0.9277
vn -0.1353 -0.3479 0.9277
vn -0.5085 -0.2755 0.8158
vn 0.5085 -0.2755 0.8158
vn -0.3843 -0.0419 0.9223
vn 0.3843 -0.0419 0.9223
vn -0.2083 0.0374 0.9774
vn 0.2083 0.0374 0.9774
vn -0.5721 -0.4767 0.6674
vn 0.5721 -0.4767 0.6674
vn -0.1369 -0.7531 0.6435
vn 0.1369 -0.7531 0.6435
vn 0.4088 -0.6071 0.6814
vn -0.4088 -0.6071 0.6814
vn 0.5740 -0.4130 0.7070
vn -0.5740 -0.4130 0.7070
vn 0.5665 -0.0968 0.8183
vn -0.5665 -0.0968 0.8183
vn 0.5703 0.1180 0.8129
vn -0.5703 0.1180 0.8129
vn 0.4823 0.5621 0.6719
vn -0.4823 0.5621 0.6719
vn 0.2604 0.6114 0.7473
vn -0.2604 0.6114 0.7473
vn 0.1640 0.3607 0.9182
vn -0.1640 0.3607 0.9182
vn -0.0178 0.2495 0.9682
vn 0.0178 0.2495 0.9682
vn 0.3273 -0.4166 0.8481
vn -0.3273 -0.4166 0.8481
vn 0.2811 -0.2610 0.9235
vn -0.2811 -0.2610 0.9235
vn -0.2542 -0.6514 0.7149
vn 0.2542 -0.6514 0.7149
vn -0.0260 -0.8455 0.5333
vn 0.0260 -0.8455 0.5333
vn -0.3518 -0.2606 0.8991
vn 0.3518 -0.2606 0.8991
vn -0.3523 -0.0110 0.9358
vn 0.3523 -0.0110 0.9358
vn -0.1317 0.4608 0.8777
vn 0.1317 0.4608 0.8777
vn -0.0342 0.6159 0.7870
vn 0.0342 0.6159 0.7870
vn 0.3603 0.5836 0.7277
vn -0.3603 0.5836 0.7277
vn 0.4988 0.5300 0.6858
vn -0.4988 0.5300 0.6858
vn 0.6667 -0.3333 0.6667
vn -0.6667 -0.3333 0.6667
vn 0.8165 -0.0731 0.5727
vn -0.8165 -0.0731 0.5727
vn 0.7840 0.1161 0.6098
vn -0.7840 0.1161 0.6098
vn -0.5306 0.8111 -0.2461
vn 0.5306 0.8111 -0.2461
vn -0.8511 0.3695 -0.3730
vn 0.8511 0.3695 -0.3730
vn -0.2446 0.8675 -0.4331
vn 0.2446 0.8675 -0.4331
vn 0.5924 0.7465 -0.3030
vn -0.5924 0.7465 -0.3030
vn 0.3685 0.8758 -0.3118
vn -0.3685 0.8758 -0.3118
vn 0.2821 0.9151 -0.2880
vn -0.2821 0.9151 -0.2880
vn 0.8561 0.1340 -0.4991
vn -0.8561 0.1340 -0.4991
vn 0.5342 -0.7233 -0.4376
vn -0.5342 -0.7233 -0.4376
vn 0.3849 -0.8131 -0.4368
vn -0.3849 -0.8131 -0.4368
vn 0.2335 -0.5806 -0.7800
vn -0.2335 -0.5806 -0.7800
vn 0.2449 -0.0583 -0.9678
vn -0.2449 -0.0583 -0.9678
vn 0.1163 -0.4535 -0.8837
vn -0.1163 -0.4535 -0.8837
vn 0.1152 -0.9836 -0.1388
vn -0.1152 -0.9836 -0.1388
vn 0.1184 -0.9669 -0.2260
vn -0.1184 -0.9669 -0.2260
vn 0.9597 -0.0085 -0.2808
vn -0.9597 -0.0085 -0.2808
vn 0.9319 0.1629 -0.3242
vn -0.9319 0.1629 -0.3242
vn 0.1626 0.0207 -0.9865
vn -0.1626 0.0207 -0.9865
vn -0.0188 -0.2177 -0.9758
vn 0.0188 -0.2177 -0.9758
vn 0.7538 -0.2926 -0.5884
vn -0.7538 -0.2926 -0.5884
vn 0.9196 0.1379 -0.3678
vn -0.9196 0.1379 -0.3678
vn 0.9297 0.3127 -0.1944
vn -0.9297 0.3127 -0.1944
vn 0.9120 0.3376 -0.2329
vn -0.9120 0.3376 -0.2329
vn 0.9407 0.3338 -0.0607
vn -0.9407 0.3338 -0.0607
vn 0.1761 -0.8805 -0.4402
vn -0.1761 -0.8805 -0.4402
vn 0.3708 -0.4733 -0.7991
vn -0.3708 -0.4733 -0.7991
vn 0.3107 -0.8284 -0.4660
vn -0.3107 -0.8284 -0.4660
vn 0.2793 -0.9515 -0.1287
vn -0.2793 -0.9515 -0.1287
vn 0.3139 -0.9321 -0.1807
vn -0.3139 -0.9321 -0.1807
vn 0.9762 -0.2083 -0.0609
vn -0.9762 -0.2083 -0.0609
vn 0.8267 -0.5066 0.2447
vn -0.8267 -0.5066 0.2447
vn 0.3449 -0.1158 -0.9315
vn -0.3449 -0.1158 -0.9315
vn 0.1203 0.9644 0.2355
vn -0.1203 0.9644 0.2355
vn 0.1275 0.9744 -0.1851
vn -0.1275 0.9744 -0.1851
vn 0.3492 0.5947 -0.7241
vn -0.3492 0.5947 -0.7241
vn 0.4153 0.8981 -0.1449
vn -0.4153 0.8981 -0.1449
vn 0.1845 0.7036 0.6863
vn -0.1845 0.7036 0.6863
vn 0.6056 0.7794 0.1608
vn -0.6056 0.7794 0.1608
vn 0.7033 0.6806 -0.2053
vn -0.7033 0.6806 -0.2053
vn 0.6679 0.2007 -0.7166
vn -0.6679 0.2007 -0.7166
vn 0.4948 0.4342 -0.7528
vn -0.4948 0.4342 -0.7528
vn 0.6423 0.7459 -0.1761
vn -0.6423 0.7459 -0.1761
vn 0.7182 0.6788 0.1530
vn -0.7182 0.6788 0.1530
vn 0.7388 0.3972 0.5444
vn -0.7388 0.3972 0.5444
vn 0.3428 0.9261 -0.1579
vn -0.3428 0.9261 -0.1579
vn 0.2270 0.5740 0.7867
vn -0.2270 0.5740 0.7867
vn -0.1722 0.1046 -0.9795
vn 0.1722 0.1046 -0.9795
vn 0.0425 0.9150 0.4013
vn -0.0425 0.9150 0.4013
vn -0.1616 0.1847 0.9694
vn 0.1616 0.1847 0.9694
vn 0.9791 0.1973 0.0483
vn -0.9791 0.1973 0.0483
vn 0.9470 0.0918 0.3079
vn -0.9470 0.0918 0.3079
vn 0.9794 0.1905 -0.0661
vn -0.9794 0.1905 -0.0661
vn 0.9938 0.0312 -0.1070
vn -0.9938 0.0312 -0.1070
vn 0.7116 -0.7008 0.0501
vn -0.7116 -0.7008 0.0501
vn 0.3722 -0.9243 0.0847
vn -0.3722 -0.9243 0.0847
vn 0.4465 -0.8644 0.2310
vn -0.4465 -0.8644 0.2310
vn 0.6066 -0.7578 0.2405
vn -0.6066 -0.7578 0.2405
vn 0.7325 -0.6368 0.2407
vn -0.7325 -0.6368 0.2407
vn 0.2637 -0.4499 0.8533
vn -0.2637 -0.4499 0.8533
vn 0.5568 -0.3181 -0.7673
vn -0.5568 -0.3181 -0.7673
vn 0.5004 -0.2807 -0.8190
vn -0.5004 -0.2807 -0.8190
vn 0.3190 -0.8494 -0.4205
vn -0.3190 -0.8494 -0.4205
vn 0.7198 -0.6356 -0.2793
vn -0.7198 -0.6356 -0.2793
vn 0.4972 -0.4408 -0.7473
vn -0.4972 -0.4408 -0.7473
vn 0.3506 0.3807 0.8557
vn -0.3506 0.3807 0.8557
vn 0.4566 0.1715 0.8730
vn -0.4566 0.1715 0.8730
vn 0.2583 0.1055 0.9603
vn -0.2583 0.1055 0.9603
vn 0.2455 -0.0802 0.9661
vn -0.2455 -0.0802 0.9661
vn 0.4643 -0.0599 0.8837
vn -0.4643 -0.0599 0.8837
vn 0.6225 -0.3045 0.7210
vn -0.6225 -0.3045 0.7210
vn 0.4500 0.6590 0.6027
vn -0.4500 0.6590 0.6027
vn -0.2667 0.8309 0.4884
vn 0.2667 0.8309 0.4884
vn -0.8284 0.2291 0.5111
vn 0.8284 0.2291 0.5111
vn -0.5251 -0.3566 0.7727
vn 0.5251 -0.3566 0.7727
vn 0.4546 -0.5665 0.6873
vn -0.4546 -0.5665 0.6873
vn 0.6996 -0.4497 0.5552
vn -0.6996 -0.4497 0.5552
vn 0.7220 -0.6827 -0.1126
vn -0.7220 -0.6827 -0.1126
vn -0.1919 0.2860 0.9388
vn 0.1919 0.2860 0.9388
vn 0.9048 -0.3734 -0.2047
vn -0.9048 -0.3734 -0.2047
vn 0.1034 0.1551 0.9825
vn -0.1034 0.1551 0.9825
vn 0.0841 0.9318 0.3530
vn -0.0841 0.9318 0.3530
vn 0.6446 -0.0883 0.7594
vn -0.6446 -0.0883 0.7594
vn 0.4309 0.4740 0.7678
vn -0.4309 0.4740 0.7678
vn 0.8032 -0.4847 0.3462
vn -0.8032 -0.4847 0.3462
vn 0.5811 -0.4128 0.7014
vn -0.5811 -0.4128 0.7014
vn 0.5910 -0.4305 0.6822
vn -0.5910 -0.4305 0.6822
vn 0.9818 -0.1804 -0.0591
vn -0.9818 -0.1804 -0.0591
vn 0.9105 -0.3965 -0.1175
vn -0.9105 -0.3965 -0.1175
vn 0.9972 -0.0181 -0.0725
vn -0.9972 -0.0181 -0.0725
vn 0.7313 -0.6543 0.1925
vn -0.7313 -0.6543 0.1925
vn 0.7867 -0.6079 0.1073
vn -0.7867 -0.6079 0.1073
vn 0.7022 -0.7022 0.1170
vn -0.7022 -0.7022 0.1170
vn 0.1840 0.9816 -0.0511
vn -0.1840 0.9816 -0.0511
vn 0.9352 0.3301 0.1284
vn -0.9352 0.3301 0.1284
vn 0.6633 -0.7463 0.0553
vn -0.6633 -0.7463 0.0553
vn -0.0085 0.9970 0.0767
vn 0.0085 0.9970 0.0767
vn 0.6237 -0.7061 0.3354
vn -0.6237 -0.7061 0.3354
vn 0.2733 -0.8925 0.3587
vn -0.2733 -0.8925 0.3587
vn -0.8328 -0.5080 -0.2200
vn 0.8328 -0.5080 -0.2200
vn -0.8339 0.2377 -0.4981
vn 0.8339 0.2377 -0.4981
vn -0.5655 0.7847 -0.2539
vn 0.5655 0.7847 -0.2539
vn -0.0560 0.9962 0.0672
vn 0.0560 0.9962 0.0672
vn 0.1445 0.0222 0.9893
vn -0.1445 0.0222 0.9893
vn 0.3275 0.0645 0.9427
vn -0.3275 0.0645 0.9427
vn 0.3127 0.0232 0.9496
vn -0.3127 0.0232 0.9496
vn 0.1710 0.0274 0.9849
vn -0.1710 0.0274 0.9849
vn 0.3487 0.2849 0.8929
vn -0.3487 0.2849 0.8929
vn 0.4006 -0.0343 0.9156
vn -0.4006 -0.0343 0.9156
vn 0.2572 -0.0603 0.9645
vn -0.2572 -0.0603 0.9645
vn 0.0637 -0.0106 0.9979
vn -0.0637 -0.0106 0.9979
vn -0.3637 0.7039 0.6101
vn 0.3637 0.7039 0.6101
vn 0.6299 0.0355 0.7759
vn -0.6299 0.0355 0.7759
vn 0.4472 -0.2002 0.8717
vn -0.4472 -0.2002 0.8717
vn 0.5072 -0.2141 0.8348
vn -0.5072 -0.2141 0.8348
vn 0.5258 0.2619 0.8093
vn -0.5258 0.2619 0.8093
vn 0.2980 0.5802 0.7580
vn -0.2980 0.5802 0.7580
vn 0.0930 -0.9924 -0.0805
vn -0.0930 -0.9924 -0.0805
vn 0.5006 -0.8657 0.0080
vn -0.5006 -0.8657 0.0080
vn 0.9285 -0.2497 0.2748
vn -0.9285 -0.2497 0.2748
vn 0.8393 0.5424 -0.0378
vn -0.8393 0.5424 -0.0378
vn -0.2355 0.9367 -0.2589
vn 0.2355 0.9367 -0.2589
vn -0.4499 0.8838 -0.1285
vn 0.4499 0.8838 -0.1285
vn -0.5384 -0.0098 -0.8427
vn 0.5384 -0.0098 -0.8427
vn -0.1910 -0.0241 -0.9813
vn 0.1910 -0.0241 -0.9813
vn 0.4046 0.0266 -0.9141
vn -0.4046 0.0266 -0.9141
vn -0.7819 0.6231 0.0197
vn 0.7819 0.6231 0.0197
vn 0.5428 -0.2063 -0.8142
vn -0.5428 -0.2063 -0.8142
vn -0.2474 -0.9231 -0.2945
vn 0.2474 -0.9231 -0.2945
vt 0.843250 0.588863
vt 0.833697 0.611927
vt 0.794218 0.611927
vt 0.815334 0.560948
vt 0.866314 0.937441
vt 0.866314 0.897962
vt 0.889378 0.888409
vt 0.917293 0.916324
vt 0.746541 0.611927
vt 0.781622 0.527235
vt 0.866314 0.985118
vt 0.951006 0.950037
vt 0.815334 0.662907
vt 0.781622 0.696619
vt 0.781622 0.950037
vt 0.815334 0.916325
vt 0.843250 0.634991
vt 0.843250 0.888409
vt 0.866314 0.644544
vt 0.866314 0.684023
vt 0.794218 0.865345
vt 0.833697 0.865345
vt 0.866314 0.731700
vt 0.746541 0.865345
vt 0.917293 0.662907
vt 0.951006 0.696619
vt 0.781622 0.780653
vt 0.815334 0.814366
vt 0.889378 0.634991
vt 0.843250 0.842281
vt 0.898931 0.611927
vt 0.938410 0.611927
vt 0.866314 0.793249
vt 0.866314 0.832728
vt 0.986087 0.611927
vt 0.866314 0.745572
vt 0.917294 0.560947
vt 0.951006 0.527235
vt 0.951006 0.780653
vt 0.917294 0.814365
vt 0.889378 0.588863
vt 0.889378 0.842281
vt 0.866314 0.579310
vt 0.866314 0.539831
vt 0.938410 0.865345
vt 0.898931 0.865345
vt 0.866314 0.492154
vt 0.986087 0.865345
vt 0.866314 0.585461
vt 0.847600 0.593213
vt 0.892780 0.865345
vt 0.885028 0.884059
vt 0.885028 0.593213
vt 0.885028 0.846631
vt 0.892780 0.611927
vt 0.866314 0.838879
vt 0.885028 0.630641
vt 0.847600 0.846631
vt 0.866314 0.638393
vt 0.839848 0.865345
vt 0.847600 0.630641
vt 0.847600 0.884059
vt 0.839848 0.611927
vt 0.866314 0.891811
vt 0.866314 0.611927
vt 0.866314 0.865345
vt 0.520711 0.060503
vt 0.517028 0.068490
vt 0.500000 0.064527
vt 0.500000 0.054411
vt 0.482972 0.068490
vt 0.479289 0.060503
vt 0.530457 0.065062
vt 0.522612 0.070678
vt 0.477388 0.070678
vt 0.469543 0.065062
vt 0.532878 0.067822
vt 0.526301 0.079422
vt 0.473699 0.079422
vt 0.467122 0.067822
vt 0.544695 0.083023
vt 0.529228 0.091098
vt 0.470772 0.091098
vt 0.455305 0.083023
vt 0.565647 0.115495
vt 0.537536 0.127779
vt 0.462464 0.127779
vt 0.434353 0.115495
vt 0.586916 0.172042
vt 0.626605 0.208159
vt 0.600470 0.238288
vt 0.535885 0.215568
vt 0.399530 0.238288
vt 0.373395 0.208159
vt 0.413084 0.172042
vt 0.464115 0.215568
vt 0.650908 0.240294
vt 0.636962 0.261221
vt 0.363038 0.261221
vt 0.349092 0.240294
vt 0.689501 0.268805
vt 0.655896 0.284413
vt 0.344104 0.284413
vt 0.310499 0.268805
vt 0.684517 0.317795
vt 0.659507 0.313152
vt 0.340493 0.313152
vt 0.315483 0.317795
vt 0.671357 0.334694
vt 0.649107 0.322437
vt 0.350893 0.322437
vt 0.328643 0.334694
vt 0.636775 0.370732
vt 0.613636 0.353108
vt 0.386364 0.353108
vt 0.363225 0.370732
vt 0.602261 0.395588
vt 0.594178 0.371277
vt 0.405822 0.371277
vt 0.397739 0.395588
vt 0.581044 0.398468
vt 0.577351 0.373341
vt 0.422649 0.373341
vt 0.418956 0.398468
vt 0.532016 0.387365
vt 0.539817 0.354339
vt 0.460183 0.354339
vt 0.467984 0.387365
vt 0.500000 0.382860
vt 0.500000 0.340417
vt 0.559135 0.334326
vt 0.579057 0.335646
vt 0.420943 0.335646
vt 0.440865 0.334326
vt 0.592090 0.332885
vt 0.407910 0.332885
vt 0.606163 0.325516
vt 0.393837 0.325516
vt 0.628251 0.311636
vt 0.371749 0.311636
vt 0.635551 0.300507
vt 0.364449 0.300507
vt 0.631484 0.283889
vt 0.368516 0.283889
vt 0.611331 0.264411
vt 0.388669 0.264411
vt 0.592372 0.254897
vt 0.407628 0.254897
vt 0.559669 0.267717
vt 0.440331 0.267717
vt 0.550878 0.277832
vt 0.500000 0.252445
vt 0.449122 0.277832
vt 0.544001 0.314523
vt 0.455999 0.314523
vt 0.500000 0.295691
vt 0.543637 0.293371
vt 0.456363 0.293371
vt 0.506819 0.075382
vt 0.500000 0.073497
vt 0.493181 0.075382
vt 0.511782 0.080633
vt 0.488218 0.080633
vt 0.512172 0.093457
vt 0.487828 0.093457
vt 0.514257 0.133422
vt 0.513874 0.097191
vt 0.486126 0.097191
vt 0.485743 0.133422
vt 0.520226 0.164615
vt 0.500000 0.157864
vt 0.500000 0.134352
vt 0.479774 0.164615
vt 0.500000 0.100063
vt 0.500000 0.091346
vt 0.530258 0.180239
vt 0.521901 0.181560
vt 0.517666 0.172353
vt 0.482334 0.172353
vt 0.478099 0.181560
vt 0.469742 0.180239
vt 0.523673 0.198817
vt 0.518957 0.194728
vt 0.481043 0.194728
vt 0.476327 0.198817
vt 0.500000 0.203867
vt 0.508211 0.197295
vt 0.491789 0.197295
vt 0.500000 0.197278
vt 0.500000 0.192167
vt 0.500000 0.165170
vt 0.513538 0.176949
vt 0.500000 0.171718
vt 0.486462 0.176949
vt 0.500000 0.186182
vt 0.508818 0.192407
vt 0.491182 0.192407
vt 0.515232 0.190709
vt 0.484768 0.190709
vt 0.516908 0.181873
vt 0.483092 0.181873
vt 0.544209 0.172814
vt 0.455791 0.172814
vt 0.541327 0.154899
vt 0.458673 0.154899
vt 0.578661 0.139176
vt 0.421339 0.139176
vt 0.583245 0.154155
vt 0.416755 0.154155
vt 0.500000 0.089977
vt 0.509911 0.090724
vt 0.490089 0.090724
vt 0.509713 0.082236
vt 0.490287 0.082236
vt 0.505196 0.077083
vt 0.494804 0.077083
vt 0.500000 0.075473
vt 0.503445 0.080840
vt 0.500000 0.080320
vt 0.496555 0.080840
vt 0.506660 0.083289
vt 0.493340 0.083289
vt 0.506822 0.086791
vt 0.493178 0.086791
vt 0.500000 0.085637
vt 0.562361 0.284338
vt 0.559190 0.294882
vt 0.437639 0.284338
vt 0.440810 0.294882
vt 0.563180 0.307151
vt 0.436820 0.307151
vt 0.570458 0.318697
vt 0.429542 0.318697
vt 0.569243 0.278245
vt 0.430757 0.278245
vt 0.589914 0.271772
vt 0.410086 0.271772
vt 0.602190 0.277180
vt 0.397810 0.277180
vt 0.617110 0.287175
vt 0.382890 0.287175
vt 0.618074 0.299197
vt 0.381926 0.299197
vt 0.615871 0.307438
vt 0.384129 0.307438
vt 0.598424 0.313725
vt 0.401576 0.313725
vt 0.590828 0.319797
vt 0.409172 0.319797
vt 0.582130 0.320991
vt 0.417870 0.320991
vt 0.578615 0.309394
vt 0.583998 0.312892
vt 0.421385 0.309394
vt 0.416002 0.312892
vt 0.589656 0.312336
vt 0.410344 0.312336
vt 0.596347 0.309249
vt 0.403653 0.309249
vt 0.606014 0.302517
vt 0.393986 0.302517
vt 0.607735 0.297520
vt 0.392265 0.297520
vt 0.606985 0.291216
vt 0.393015 0.291216
vt 0.598275 0.283083
vt 0.401725 0.283083
vt 0.589866 0.280167
vt 0.410134 0.280167
vt 0.576352 0.284624
vt 0.423648 0.284624
vt 0.572831 0.289915
vt 0.427169 0.289915
vt 0.573307 0.303342
vt 0.426693 0.303342
vt 0.572447 0.295716
vt 0.427553 0.295716
vt 0.529647 0.428636
vt 0.500000 0.428636
vt 0.470353 0.428636
vt 0.584616 0.428636
vt 0.415384 0.428636
vt 0.622301 0.417889
vt 0.377699 0.417889
vt 0.666214 0.388954
vt 0.333786 0.388954
vt 0.701481 0.344467
vt 0.298519 0.344467
vt 0.712163 0.315527
vt 0.287837 0.315527
vt 0.704305 0.260225
vt 0.295695 0.260225
vt 0.672947 0.224880
vt 0.327053 0.224880
vt 0.640497 0.198841
vt 0.359503 0.198841
vt 0.603553 0.023452
vt 0.625128 0.029461
vt 0.635753 0.082198
vt 0.598617 0.056841
vt 0.364247 0.082198
vt 0.374872 0.029461
vt 0.396447 0.023452
vt 0.401383 0.056841
vt 0.546781 0.009442
vt 0.556354 0.040906
vt 0.453219 0.009442
vt 0.443646 0.040906
vt 0.500000 0.033223
vt 0.527159 0.049514
vt 0.472841 0.049514
vt 0.537222 0.060794
vt 0.462778 0.060794
vt 0.558499 0.065137
vt 0.441501 0.065137
vt 0.588127 0.085177
vt 0.411873 0.085177
vt 0.607239 0.113940
vt 0.392761 0.113940
vt 0.612663 0.133675
vt 0.605467 0.151503
vt 0.394533 0.151503
vt 0.387337 0.133675
vt 0.600708 0.162985
vt 0.399292 0.162985
vt 0.922374 0.064228
vt 0.859647 0.117994
vt 0.823287 0.101559
vt 0.861342 0.027230
vt 0.176713 0.101559
vt 0.140353 0.117994
vt 0.077626 0.064228
vt 0.138658 0.027230
vt 0.765863 0.087001
vt 0.774604 0.010837
vt 0.234137 0.087001
vt 0.225396 0.010837
vt 0.661952 0.087561
vt 0.647010 0.028716
vt 0.338048 0.087561
vt 0.352990 0.028716
vt 0.743592 0.198572
vt 0.766410 0.233065
vt 0.256408 0.198572
vt 0.233590 0.233065
vt 0.987633 0.154243
vt 0.889478 0.177602
vt 0.110522 0.177602
vt 0.012367 0.154243
vt 0.899807 0.420886
vt 0.844317 0.347370
vt 0.881169 0.309153
vt 0.958963 0.357385
vt 0.118831 0.309153
vt 0.155683 0.347370
vt 0.100193 0.420886
vt 0.041037 0.357385
vt 0.903302 0.261367
vt 0.999860 0.253531
vt 0.096698 0.261367
vt 0.000140 0.253531
vt 0.724763 0.340212
vt 0.744725 0.304629
vt 0.766113 0.319494
vt 0.255275 0.304629
vt 0.275237 0.340212
vt 0.233887 0.319494
vt 0.793427 0.280495
vt 0.826663 0.297810
vt 0.206573 0.280495
vt 0.173337 0.297810
vt 0.823620 0.254612
vt 0.855331 0.267956
vt 0.176380 0.254612
vt 0.144669 0.267956
vt 0.835860 0.225225
vt 0.868309 0.233525
vt 0.164140 0.225225
vt 0.131691 0.233525
vt 0.813499 0.190705
vt 0.851288 0.181145
vt 0.148712 0.181145
vt 0.186501 0.190705
vt 0.772263 0.374010
vt 0.227737 0.374010
vt 0.744519 0.390057
vt 0.255481 0.390057
vt 0.824765 0.470987
vt 0.175235 0.470987
vt 0.792141 0.464714
vt 0.742181 0.461543
vt 0.726855 0.432574
vt 0.273145 0.432574
vt 0.257819 0.461543
vt 0.207859 0.464714
vt 0.795638 0.489991
vt 0.204362 0.489991
vt 0.786137 0.227788
vt 0.213863 0.227788
vt 0.802950 0.203415
vt 0.197050 0.203415
vt 0.769334 0.128771
vt 0.691484 0.146686
vt 0.230666 0.128771
vt 0.308516 0.146686
vt 0.780113 0.169386
vt 0.219887 0.169386
vt 0.803789 0.171181
vt 0.830917 0.139518
vt 0.169083 0.139518
vt 0.196211 0.171181
vt 0.574628 0.959188
vt 0.464516 0.959188
vt 0.477326 0.891852
vt 0.545439 0.884582
vt 0.272900 0.891852
vt 0.285710 0.959188
vt 0.175598 0.959188
vt 0.204787 0.884582
vt 0.605134 0.846978
vt 0.715894 0.897069
vt 0.145092 0.846978
vt 0.034332 0.897069
vt 0.605360 0.784410
vt 0.683874 0.757011
vt 0.144866 0.784410
vt 0.066352 0.757011
vt 0.574835 0.744212
vt 0.617867 0.719156
vt 0.175391 0.744212
vt 0.132359 0.719156
vt 0.534996 0.712528
vt 0.568728 0.682132
vt 0.215230 0.712528
vt 0.181498 0.682132
vt 0.483006 0.686791
vt 0.508539 0.641024
vt 0.267220 0.686791
vt 0.241687 0.641024
vt 0.513415 0.736977
vt 0.478880 0.719593
vt 0.271346 0.719593
vt 0.236811 0.736977
vt 0.541117 0.760754
vt 0.209109 0.760754
vt 0.557599 0.789442
vt 0.192627 0.789442
vt 0.553841 0.821849
vt 0.196385 0.821849
vt 0.524671 0.842380
vt 0.225555 0.842380
vt 0.485193 0.845321
vt 0.265033 0.845321
vt 0.786150 0.181127
vt 0.770208 0.191225
vt 0.213850 0.181127
vt 0.229792 0.191225
vt 0.408153 0.587507
vt 0.409610 0.674022
vt 0.342073 0.587507
vt 0.340616 0.674022
vt 0.400301 0.910556
vt 0.414155 0.878318
vt 0.336071 0.878318
vt 0.349925 0.910556
vt 0.443630 0.713731
vt 0.306596 0.713731
vt 0.429725 0.728622
vt 0.392812 0.710774
vt 0.357414 0.710774
vt 0.320501 0.728622
vt 0.422979 0.754609
vt 0.432640 0.746527
vt 0.327247 0.754609
vt 0.317586 0.746527
vt 0.427719 0.796173
vt 0.391578 0.815187
vt 0.358648 0.815187
vt 0.322507 0.796173
vt 0.448277 0.830976
vt 0.301949 0.830976
vt 0.797710 0.195652
vt 0.802580 0.199758
vt 0.197420 0.199758
vt 0.202290 0.195652
vt 0.789609 0.184671
vt 0.210391 0.184671
vt 0.466042 0.804091
vt 0.490498 0.816075
vt 0.284184 0.804091
vt 0.259728 0.816075
vt 0.448042 0.783921
vt 0.302184 0.783921
vt 0.438745 0.764960
vt 0.311481 0.764960
vt 0.445216 0.756351
vt 0.305010 0.756351
vt 0.449819 0.743458
vt 0.300407 0.743458
vt 0.456307 0.732687
vt 0.293919 0.732687
vt 0.475471 0.740871
vt 0.274755 0.740871
vt 0.514211 0.817769
vt 0.236015 0.817769
vt 0.527961 0.808598
vt 0.222265 0.808598
vt 0.530079 0.790754
vt 0.220147 0.790754
vt 0.518620 0.772385
vt 0.231606 0.772385
vt 0.498668 0.755033
vt 0.251558 0.755033
vt 0.468029 0.756171
vt 0.459660 0.770459
vt 0.282197 0.756171
vt 0.290566 0.770459
vt 0.487167 0.769899
vt 0.477354 0.785393
vt 0.263059 0.769899
vt 0.272872 0.785393
vt 0.504617 0.782999
vt 0.496545 0.797122
vt 0.245609 0.782999
vt 0.253681 0.797122
vt 0.516137 0.792591
vt 0.513713 0.804019
vt 0.234089 0.792591
vt 0.236513 0.804019
vt 0.574269 0.607668
vt 0.613510 0.655816
vt 0.175957 0.607668
vt 0.136716 0.655816
vt 0.644031 0.693270
vt 0.106195 0.693270
vt 0.668163 0.712097
vt 0.082063 0.712097
vt 0.727131 0.698475
vt 0.676584 0.686010
vt 0.023095 0.698475
vt 0.073642 0.686010
vt 0.729804 0.624370
vt 0.667013 0.640198
vt 0.020422 0.624370
vt 0.083213 0.640198
vt 0.721292 0.572934
vt 0.648152 0.594596
vt 0.028934 0.572934
vt 0.102074 0.594596
vt 0.630034 0.557583
vt 0.717709 0.538143
vt 0.032517 0.538143
vt 0.120192 0.557583
vt 0.526877 0.539235
vt 0.223349 0.539235
s 0
f 47/1/1 1/2/1 3/3/1 45/4/1
f 4/5/2 2/6/2 48/7/2 46/8/2
f 45/4/3 3/3/3 5/9/3 43/10/3
f 6/11/4 4/5/4 46/8/4 44/12/4
f 3/3/5 9/13/5 7/14/5 5/9/5
f 8/15/6 10/16/6 4/5/6 6/11/6
f 1/2/7 11/17/7 9/13/7 3/3/7
f 10/16/8 12/18/8 2/6/8 4/5/8
f 11/17/9 13/19/9 15/20/9 9/13/9
f 16/21/10 14/22/10 12/18/10 10/16/10
f 9/13/11 15/20/11 17/23/11 7/14/11
f 18/24/12 16/21/12 10/16/12 8/15/12
f 15/20/13 21/25/13 19/26/13 17/23/13
f 20/27/14 22/28/14 16/21/14 18/24/14
f 13/19/15 23/29/15 21/25/15 15/20/15
f 22/28/16 24/30/16 14/22/16 16/21/16
f 23/29/17 25/31/17 27/32/17 21/25/17
f 28/33/18 26/34/18 24/30/18 22/28/18
f 21/25/19 27/32/19 29/35/19 19/26/19
f 30/36/20 28/33/20 22/28/20 20/27/20
f 27/32/21 33/37/21 31/38/21 29/35/21
f 32/39/22 34/40/22 28/33/22 30/36/22
f 25/31/23 35/41/23 33/37/23 27/32/23
f 34/40/24 36/42/24 26/34/24 28/33/24
f 35/41/25 37/43/25 39/44/25 33/37/25
f 40/45/26 38/46/26 36/42/26 34/40/26
f 33/37/27 39/44/27 41/47/27 31/38/27
f 42/48/28 40/45/28 34/40/28 32/39/28
f 39/44/29 45/4/29 43/10/29 41/47/29
f 44/12/30 46/8/30 40/45/30 42/48/30
f 37/43/31 47/1/31 45/4/31 39/44/31
f 46/8/32 48/7/32 38/46/32 40/45/32
f 47/1/33 37/43/33 51/49/33 49/50/33
f 52/51/34 38/46/34 48/7/34 50/52/34
f 37/43/35 35/41/35 53/53/35 51/49/35
f 54/54/36 36/42/36 38/46/36 52/51/36
f 35/41/37 25/31/37 55/55/37 53/53/37
f 56/56/38 26/34/38 36/42/38 54/54/38
f 25/31/39 23/29/39 57/57/39 55/55/39
f 58/58/40 24/30/40 26/34/40 56/56/40
f 23/29/41 13/19/41 59/59/41 57/57/41
f 60/60/42 14/22/42 24/30/42 58/58/42
f 13/19/43 11/17/43 63/61/43 59/59/43
f 64/62/44 12/18/44 14/22/44 60/60/44
f 11/17/45 1/2/45 65/63/45 63/61/45
f 66/64/46 2/6/46 12/18/46 64/62/46
f 1/2/47 47/1/47 49/50/47 65/63/47
f 50/52/48 48/7/48 2/6/48 66/64/48
f 61/65/49 65/63/49 49/50/49
f 50/52/50 66/64/50 62/66/50
f 63/61/51 65/63/51 61/65/51
f 62/66/52 66/64/52 64/62/52
f 61/65/53 59/59/53 63/61/53
f 64/62/54 60/60/54 62/66/54
f 61/65/55 57/57/55 59/59/55
f 60/60/56 58/58/56 62/66/56
f 61/65/57 55/55/57 57/57/57
f 58/58/58 56/56/58 62/66/58
f 61/65/59 53/53/59 55/55/59
f 56/56/60 54/54/60 62/66/60
f 61/65/61 51/49/61 53/53/61
f 54/54/62 52/51/62 62/66/62
f 61/65/63 49/50/63 51/49/63
f 52/51/64 50/52/64 62/66/64
f 89/67/65 174/68/65 176/69/65 91/70/65
f 176/69/66 175/71/66 90/72/66 91/70/66
f 87/73/67 172/74/67 174/68/67 89/67/67
f 175/71/68 173/75/68 88/76/68 90/72/68
f 85/77/69 170/78/69 172/74/69 87/73/69
f 173/75/70 171/79/70 86/80/70 88/76/70
f 83/81/71 168/82/71 170/78/71 85/77/71
f 171/79/72 169/83/72 84/84/72 86/80/72
f 81/85/73 166/86/73 168/82/73 83/81/73
f 169/83/74 167/87/74 82/88/74 84/84/74
f 79/89/75 92/90/75 146/91/75 164/92/75
f 147/93/76 93/94/76 80/95/76 165/96/76
f 92/90/77 94/97/77 148/98/77 146/91/77
f 149/99/78 95/100/78 93/94/78 147/93/78
f 94/97/79 96/101/79 150/102/79 148/98/79
f 151/103/80 97/104/80 95/100/80 149/99/80
f 96/101/81 98/105/81 152/106/81 150/102/81
f 153/107/82 99/108/82 97/104/82 151/103/82
f 98/105/83 100/109/83 154/110/83 152/106/83
f 155/111/84 101/112/84 99/108/84 153/107/84
f 100/109/85 102/113/85 156/114/85 154/110/85
f 157/115/86 103/116/86 101/112/86 155/111/86
f 102/113/87 104/117/87 158/118/87 156/114/87
f 159/119/88 105/120/88 103/116/88 157/115/88
f 104/117/89 106/121/89 160/122/89 158/118/89
f 161/123/90 107/124/90 105/120/90 159/119/90
f 106/121/91 108/125/91 162/126/91 160/122/91
f 163/127/92 109/128/92 107/124/92 161/123/92
f 108/125/93 67/129/93 68/130/93 162/126/93
f 68/130/94 67/129/94 109/128/94 163/127/94
f 110/131/95 128/132/95 160/122/95 162/126/95
f 161/123/96 129/133/96 111/134/96 163/127/96
f 128/132/97 179/135/97 158/118/97 160/122/97
f 159/119/98 180/136/98 129/133/98 161/123/98
f 126/137/99 156/114/99 158/118/99 179/135/99
f 159/119/100 157/115/100 127/138/100 180/136/100
f 124/139/101 154/110/101 156/114/101 126/137/101
f 157/115/102 155/111/102 125/140/102 127/138/102
f 122/141/103 152/106/103 154/110/103 124/139/103
f 155/111/104 153/107/104 123/142/104 125/140/104
f 120/143/105 150/102/105 152/106/105 122/141/105
f 153/107/106 151/103/106 121/144/106 123/142/106
f 118/145/107 148/98/107 150/102/107 120/143/107
f 151/103/108 149/99/108 119/146/108 121/144/108
f 116/147/109 146/91/109 148/98/109 118/145/109
f 149/99/110 147/93/110 117/148/110 119/146/110
f 114/149/111 164/92/111 146/91/111 116/147/111
f 147/93/112 165/96/112 115/150/112 117/148/112
f 114/149/113 181/151/113 177/152/113 164/92/113
f 177/152/114 182/153/114 115/150/114 165/96/114
f 110/131/115 162/126/115 68/130/115 112/154/115
f 68/130/116 163/127/116 111/134/116 113/155/116
f 112/154/117 68/130/117 178/156/117 183/157/117
f 178/156/118 68/130/118 113/155/118 184/158/118
f 177/152/119 181/151/119 183/157/119 178/156/119
f 184/158/120 182/153/120 177/152/120 178/156/120
f 135/159/121 137/160/121 176/69/121 174/68/121
f 176/69/122 137/160/122 136/161/122 175/71/122
f 133/162/123 135/159/123 174/68/123 172/74/123
f 175/71/124 136/161/124 134/163/124 173/75/124
f 131/164/125 133/162/125 172/74/125 170/78/125
f 173/75/126 134/163/126 132/165/126 171/79/126
f 166/86/127 187/166/127 185/167/127 168/82/127
f 186/168/128 188/169/128 167/87/128 169/83/128
f 131/164/129 170/78/129 168/82/129 185/167/129
f 169/83/130 171/79/130 132/165/130 186/168/130
f 144/170/131 190/171/131 189/172/131 187/166/131
f 189/172/132 190/171/132 145/173/132 188/169/132
f 185/167/133 187/166/133 189/172/133 69/174/133
f 189/172/134 188/169/134 186/168/134 69/174/134
f 130/175/135 131/164/135 185/167/135 69/174/135
f 186/168/135 132/165/135 130/175/135 69/174/135
f 142/176/136 193/177/136 191/178/136 144/170/136
f 192/179/137 194/180/137 143/181/137 145/173/137
f 140/182/138 195/183/138 193/177/138 142/176/138
f 194/180/139 196/184/139 141/185/139 143/181/139
f 139/186/140 197/187/140 195/183/140 140/182/140
f 196/184/141 198/188/141 139/186/141 141/185/141
f 138/189/142 71/190/142 197/187/142 139/186/142
f 198/188/143 71/190/143 138/189/143 139/186/143
f 190/171/144 144/170/144 191/178/144 70/191/144
f 192/179/145 145/173/145 190/171/145 70/191/145
f 70/191/146 191/178/146 206/192/146 208/193/146
f 207/194/147 192/179/147 70/191/147 208/193/147
f 71/190/148 199/195/148 200/196/148 197/187/148
f 201/197/149 199/195/149 71/190/149 198/188/149
f 197/187/150 200/196/150 202/198/150 195/183/150
f 203/199/151 201/197/151 198/188/151 196/184/151
f 195/183/152 202/198/152 204/200/152 193/177/152
f 205/201/153 203/199/153 196/184/153 194/180/153
f 193/177/154 204/200/154 206/192/154 191/178/154
f 207/194/155 205/201/155 194/180/155 192/179/155
f 199/195/156 204/200/156 202/198/156 200/196/156
f 203/199/157 205/201/157 199/195/157 201/197/157
f 199/195/158 208/193/158 206/192/158 204/200/158
f 207/194/159 208/193/159 199/195/159 205/201/159
f 139/186/160 140/182/160 164/92/160 177/152/160
f 165/96/161 141/185/161 139/186/161 177/152/161
f 140/182/162 142/176/162 211/202/162 164/92/162
f 212/203/163 143/181/163 141/185/163 165/96/163
f 142/176/164 144/170/164 213/204/164 211/202/164
f 214/205/165 145/173/165 143/181/165 212/203/165
f 144/170/166 187/166/166 166/86/166 213/204/166
f 167/87/167 188/169/167 145/173/167 214/205/167
f 81/85/168 209/206/168 213/204/168 166/86/168
f 214/205/169 210/207/169 82/88/169 167/87/169
f 209/206/170 215/208/170 211/202/170 213/204/170
f 212/203/171 216/209/171 210/207/171 214/205/171
f 79/89/172 164/92/172 211/202/172 215/208/172
f 212/203/173 165/96/173 80/95/173 216/209/173
f 131/164/174 130/175/174 72/210/174 222/211/174
f 72/210/175 130/175/175 132/165/175 223/212/175
f 133/162/176 131/164/176 222/211/176 220/213/176
f 223/212/177 132/165/177 134/163/177 221/214/177
f 135/159/178 133/162/178 220/213/178 218/215/178
f 221/214/179 134/163/179 136/161/179 219/216/179
f 137/160/180 135/159/180 218/215/180 217/217/180
f 219/216/181 136/161/181 137/160/181 217/217/181
f 217/217/182 218/215/182 229/218/182 231/219/182
f 230/220/183 219/216/183 217/217/183 231/219/183
f 218/215/184 220/213/184 227/221/184 229/218/184
f 228/222/185 221/214/185 219/216/185 230/220/185
f 220/213/186 222/211/186 225/223/186 227/221/186
f 226/224/187 223/212/187 221/214/187 228/222/187
f 222/211/188 72/210/188 224/225/188 225/223/188
f 224/225/189 72/210/189 223/212/189 226/224/189
f 224/225/190 231/219/190 229/218/190 225/223/190
f 230/220/191 231/219/191 224/225/191 226/224/191
f 225/223/192 229/218/192 227/221/192
f 228/222/193 230/220/193 226/224/193
f 183/157/194 181/151/194 234/226/194 232/227/194
f 235/228/195 182/153/195 184/158/195 233/229/195
f 112/154/196 183/157/196 232/227/196 254/230/196
f 233/229/197 184/158/197 113/155/197 255/231/197
f 110/131/198 112/154/198 254/230/198 256/232/198
f 255/231/199 113/155/199 111/134/199 257/233/199
f 181/151/200 114/149/200 252/234/200 234/226/200
f 253/235/201 115/150/201 182/153/201 235/228/201
f 114/149/202 116/147/202 250/236/202 252/234/202
f 251/237/203 117/148/203 115/150/203 253/235/203
f 116/147/204 118/145/204 248/238/204 250/236/204
f 249/239/205 119/146/205 117/148/205 251/237/205
f 118/145/206 120/143/206 246/240/206 248/238/206
f 247/241/207 121/144/207 119/146/207 249/239/207
f 120/143/208 122/141/208 244/242/208 246/240/208
f 245/243/209 123/142/209 121/144/209 247/241/209
f 122/141/210 124/139/210 242/244/210 244/242/210
f 243/245/211 125/140/211 123/142/211 245/243/211
f 124/139/212 126/137/212 240/246/212 242/244/212
f 241/247/213 127/138/213 125/140/213 243/245/213
f 126/137/214 179/135/214 236/248/214 240/246/214
f 237/249/215 180/136/215 127/138/215 241/247/215
f 179/135/216 128/132/216 238/250/216 236/248/216
f 239/251/217 129/133/217 180/136/217 237/249/217
f 128/132/218 110/131/218 256/232/218 238/250/218
f 257/233/219 111/134/219 129/133/219 239/251/219
f 238/250/220 256/232/220 258/252/220 276/253/220
f 259/254/221 257/233/221 239/251/221 277/255/221
f 236/248/222 238/250/222 276/253/222 278/256/222
f 277/255/223 239/251/223 237/249/223 279/257/223
f 240/246/224 236/248/224 278/256/224 274/258/224
f 279/257/225 237/249/225 241/247/225 275/259/225
f 242/244/226 240/246/226 274/258/226 272/260/226
f 275/259/227 241/247/227 243/245/227 273/261/227
f 244/242/228 242/244/228 272/260/228 270/262/228
f 273/261/229 243/245/229 245/243/229 271/263/229
f 246/240/230 244/242/230 270/262/230 268/264/230
f 271/263/231 245/243/231 247/241/231 269/265/231
f 248/238/232 246/240/232 268/264/232 266/266/232
f 269/265/233 247/241/233 249/239/233 267/267/233
f 250/236/234 248/238/234 266/266/234 264/268/234
f 267/267/235 249/239/235 251/237/235 265/269/235
f 252/234/236 250/236/236 264/268/236 262/270/236
f 265/269/237 251/237/237 253/235/237 263/271/237
f 234/226/238 252/234/238 262/270/238 280/272/238
f 263/271/239 253/235/239 235/228/239 281/273/239
f 256/232/240 254/230/240 260/274/240 258/252/240
f 261/275/241 255/231/241 257/233/241 259/254/241
f 254/230/242 232/227/242 282/276/242 260/274/242
f 283/277/243 233/229/243 255/231/243 261/275/243
f 232/227/244 234/226/244 280/272/244 282/276/244
f 281/273/245 235/228/245 233/229/245 283/277/245
f 67/129/246 108/125/246 284/278/246 73/279/246
f 285/280/247 109/128/247 67/129/247 73/279/247
f 108/125/248 106/121/248 286/281/248 284/278/248
f 287/282/249 107/124/249 109/128/249 285/280/249
f 106/121/250 104/117/250 288/283/250 286/281/250
f 289/284/251 105/120/251 107/124/251 287/282/251
f 104/117/252 102/113/252 290/285/252 288/283/252
f 291/286/253 103/116/253 105/120/253 289/284/253
f 102/113/254 100/109/254 292/287/254 290/285/254
f 293/288/255 101/112/255 103/116/255 291/286/255
f 100/109/256 98/105/256 294/289/256 292/287/256
f 295/290/257 99/108/257 101/112/257 293/288/257
f 98/105/258 96/101/258 296/291/258 294/289/258
f 297/292/259 97/104/259 99/108/259 295/290/259
f 96/101/260 94/97/260 298/293/260 296/291/260
f 299/294/261 95/100/261 97/104/261 297/292/261
f 94/97/262 92/90/262 300/295/262 298/293/262
f 301/296/263 93/94/263 95/100/263 299/294/263
f 308/297/264 309/298/264 328/299/264 338/300/264
f 329/301/265 309/302/265 308/303/265 339/304/265
f 307/305/266 308/297/266 338/300/266 336/306/266
f 339/304/267 308/303/267 307/307/267 337/308/267
f 306/309/268 307/305/268 336/306/268 340/310/268
f 337/308/269 307/307/269 306/309/269 341/311/269
f 89/67/270 91/70/270 306/309/270 340/310/270
f 306/309/271 91/70/271 90/72/271 341/311/271
f 87/73/272 89/67/272 340/310/272 334/312/272
f 341/311/273 90/72/273 88/76/273 335/313/273
f 85/77/274 87/73/274 334/312/274 330/314/274
f 335/313/275 88/76/275 86/80/275 331/315/275
f 83/81/276 85/77/276 330/314/276 332/316/276
f 331/315/277 86/80/277 84/84/277 333/317/277
f 330/314/278 336/306/278 338/300/278 332/316/278
f 339/304/279 337/308/279 331/315/279 333/317/279
f 330/314/280 334/312/280 340/310/280 336/306/280
f 341/311/281 335/313/281 331/315/281 337/308/281
f 326/318/282 332/316/282 338/300/282 328/299/282
f 339/304/283 333/317/283 327/319/283 329/301/283
f 81/85/284 83/81/284 332/316/284 326/318/284
f 333/317/285 84/84/285 82/88/285 327/319/285
f 209/206/286 342/320/286 344/321/286 215/208/286
f 345/322/287 343/323/287 210/207/287 216/209/287
f 81/85/288 326/318/288 342/320/288 209/206/288
f 343/323/289 327/319/289 82/88/289 210/207/289
f 79/89/290 215/208/290 344/321/290 346/324/290
f 345/322/291 216/209/291 80/95/291 347/325/291
f 79/89/292 346/324/292 300/295/292 92/90/292
f 301/296/293 347/325/293 80/95/293 93/94/293
f 77/326/294 324/327/294 352/328/294 304/329/294
f 353/330/295 325/331/295 77/332/295 304/333/295
f 304/329/296 352/328/296 350/334/296 78/335/296
f 351/336/297 353/330/297 304/333/297 78/337/297
f 78/335/298 350/334/298 348/338/298 305/339/298
f 349/340/299 351/336/299 78/337/299 305/341/299
f 305/339/300 348/338/300 328/299/300 309/298/300
f 329/301/301 349/340/301 305/341/301 309/302/301
f 326/318/302 328/299/302 348/338/302 342/320/302
f 349/340/303 329/301/303 327/319/303 343/323/303
f 296/291/304 298/293/304 318/342/304 310/343/304
f 319/344/305 299/294/305 297/292/305 311/345/305
f 76/346/306 316/347/306 324/327/306 77/326/306
f 325/331/307 317/348/307 76/349/307 77/332/307
f 302/350/308 358/351/308 356/352/308 303/353/308
f 357/354/309 359/355/309 302/356/309 303/357/309
f 303/353/310 356/352/310 354/358/310 75/359/310
f 355/360/311 357/354/311 303/357/311 75/361/311
f 75/359/312 354/358/312 316/347/312 76/346/312
f 317/348/313 355/360/313 75/361/313 76/349/313
f 292/362/314 294/289/314 362/363/314 364/364/314
f 363/365/315 295/290/315 293/366/315 365/367/315
f 364/364/316 362/363/316 368/368/316 366/369/316
f 369/370/317 363/365/317 365/367/317 367/371/317
f 366/369/318 368/368/318 370/372/318 372/373/318
f 371/374/319 369/370/319 367/371/319 373/375/319
f 372/373/320 370/372/320 376/376/320 374/377/320
f 377/378/321 371/374/321 373/375/321 375/379/321
f 314/380/322 378/381/322 374/377/322 376/376/322
f 375/379/323 379/382/323 315/383/323 377/378/323
f 316/347/324 354/358/324 374/377/324 378/381/324
f 375/379/325 355/360/325 317/348/325 379/382/325
f 354/358/326 356/352/326 372/373/326 374/377/326
f 373/375/327 357/354/327 355/360/327 375/379/327
f 356/352/328 358/351/328 366/369/328 372/373/328
f 367/371/329 359/355/329 357/354/329 373/375/329
f 358/351/330 360/384/330 364/364/330 366/369/330
f 365/367/331 361/385/331 359/355/331 367/371/331
f 290/386/332 292/362/332 364/364/332 360/384/332
f 365/367/333 293/366/333 291/387/333 361/385/333
f 74/388/334 360/384/334 358/351/334 302/350/334
f 359/355/335 361/385/335 74/389/335 302/356/335
f 284/390/336 286/391/336 288/392/336 290/386/336
f 289/393/337 287/394/337 285/395/337 291/387/337
f 284/390/338 290/386/338 360/384/338 74/388/338
f 361/385/339 291/387/339 285/395/339 74/389/339
f 73/396/340 284/390/340 74/388/340
f 74/389/341 285/395/341 73/397/341
f 294/289/342 296/291/342 310/343/342 362/363/342
f 311/345/343 297/292/343 295/290/343 363/365/343
f 310/343/344 312/398/344 368/368/344 362/363/344
f 369/370/345 313/399/345 311/345/345 363/365/345
f 312/398/346 382/400/346 370/372/346 368/368/346
f 371/374/347 383/401/347 313/399/347 369/370/347
f 314/380/348 376/376/348 370/372/348 382/400/348
f 371/374/349 377/378/349 315/383/349 383/401/349
f 348/338/350 350/334/350 386/402/350 384/403/350
f 387/404/351 351/336/351 349/340/351 385/405/351
f 318/342/352 384/403/352 386/402/352 320/406/352
f 387/404/353 385/405/353 319/344/353 321/407/353
f 298/293/354 300/295/354 384/403/354 318/342/354
f 385/405/355 301/296/355 299/294/355 319/344/355
f 300/295/356 344/321/356 342/320/356 384/403/356
f 343/323/357 345/322/357 301/296/357 385/405/357
f 342/320/358 348/338/358 384/403/358
f 385/405/359 349/340/359 343/323/359
f 300/295/360 346/324/360 344/321/360
f 345/322/361 347/325/361 301/296/361
f 314/380/362 322/408/362 380/409/362 378/381/362
f 381/410/363 323/411/363 315/383/363 379/382/363
f 316/347/364 378/381/364 380/409/364 324/327/364
f 381/410/365 379/382/365 317/348/365 325/331/365
f 320/406/366 386/402/366 380/409/366 322/408/366
f 381/410/367 387/404/367 321/407/367 323/411/367
f 350/334/368 352/328/368 380/409/368 386/402/368
f 381/410/369 353/330/369 351/336/369 387/404/369
f 324/327/370 380/409/370 352/328/370
f 353/330/371 381/410/371 325/331/371
f 400/412/372 388/413/372 414/414/372 402/415/372
f 415/416/373 389/417/373 401/418/373 403/419/373
f 400/412/374 402/415/374 404/420/374 398/421/374
f 405/422/375 403/419/375 401/418/375 399/423/375
f 398/421/376 404/420/376 406/424/376 396/425/376
f 407/426/377 405/422/377 399/423/377 397/427/377
f 396/425/378 406/424/378 408/428/378 394/429/378
f 409/430/379 407/426/379 397/427/379 395/431/379
f 394/429/380 408/428/380 410/432/380 392/433/380
f 411/434/381 409/430/381 395/431/381 393/435/381
f 392/433/382 410/432/382 412/436/382 390/437/382
f 413/438/383 411/434/383 393/435/383 391/439/383
f 410/432/384 420/440/384 418/441/384 412/436/384
f 419/442/385 421/443/385 411/434/385 413/438/385
f 408/428/386 422/444/386 420/440/386 410/432/386
f 421/443/387 423/445/387 409/430/387 411/434/387
f 406/424/388 424/446/388 422/444/388 408/428/388
f 423/445/389 425/447/389 407/426/389 409/430/389
f 404/420/390 426/448/390 424/446/390 406/424/390
f 425/447/391 427/449/391 405/422/391 407/426/391
f 402/415/392 428/450/392 426/448/392 404/420/392
f 427/449/393 429/451/393 403/419/393 405/422/393
f 402/415/394 414/414/394 416/452/394 428/450/394
f 417/453/395 415/416/395 403/419/395 429/451/395
f 318/342/396 320/406/396 444/454/396 442/455/396
f 445/456/397 321/407/397 319/344/397 443/457/397
f 320/458/398 390/437/398 412/436/398 444/459/398
f 413/438/399 391/439/399 321/460/399 445/461/399
f 310/343/400 318/342/400 442/455/400 312/398/400
f 443/457/401 319/344/401 311/345/401 313/399/401
f 382/462/402 430/463/402 414/414/402 388/413/402
f 415/416/403 431/464/403 383/465/403 389/417/403
f 412/436/404 418/441/404 440/466/404 444/459/404
f 441/467/405 419/442/405 413/438/405 445/461/405
f 438/468/406 446/469/406 444/459/406 440/466/406
f 445/461/407 447/470/407 439/471/407 441/467/407
f 434/472/408 446/469/408 438/468/408 436/473/408
f 439/471/409 447/470/409 435/474/409 437/475/409
f 432/476/410 448/477/410 446/469/410 434/472/410
f 447/470/411 449/478/411 433/479/411 435/474/411
f 430/463/412 448/477/412 432/476/412 450/480/412
f 433/479/413 449/478/413 431/464/413 451/481/413
f 414/414/414 430/463/414 450/480/414 416/452/414
f 451/481/415 431/464/415 415/416/415 417/453/415
f 312/398/416 448/482/416 430/483/416 382/400/416
f 431/484/417 449/485/417 313/399/417 383/401/417
f 312/398/418 442/455/418 446/486/418 448/482/418
f 447/487/419 443/457/419 313/399/419 449/485/419
f 442/455/420 444/454/420 446/486/420
f 447/487/421 445/456/421 443/457/421
f 416/452/422 450/480/422 452/488/422 476/489/422
f 453/490/423 451/481/423 417/453/423 477/491/423
f 450/480/424 432/476/424 462/492/424 452/488/424
f 463/493/425 433/479/425 451/481/425 453/490/425
f 432/476/426 434/472/426 460/494/426 462/492/426
f 461/495/427 435/474/427 433/479/427 463/493/427
f 434/472/428 436/473/428 458/496/428 460/494/428
f 459/497/429 437/475/429 435/474/429 461/495/429
f 436/473/430 438/468/430 456/498/430 458/496/430
f 457/499/431 439/471/431 437/475/431 459/497/431
f 438/468/432 440/466/432 454/500/432 456/498/432
f 455/501/433 441/467/433 439/471/433 457/499/433
f 440/466/434 418/441/434 474/502/434 454/500/434
f 475/503/435 419/442/435 441/467/435 455/501/435
f 428/450/436 416/452/436 476/489/436 464/504/436
f 477/491/437 417/453/437 429/451/437 465/505/437
f 426/448/438 428/450/438 464/504/438 466/506/438
f 465/505/439 429/451/439 427/449/439 467/507/439
f 424/446/440 426/448/440 466/506/440 468/508/440
f 467/507/441 427/449/441 425/447/441 469/509/441
f 422/444/442 424/446/442 468/508/442 470/510/442
f 469/509/443 425/447/443 423/445/443 471/511/443
f 420/440/444 422/444/444 470/510/444 472/512/444
f 471/511/445 423/445/445 421/443/445 473/513/445
f 418/441/446 420/440/446 472/512/446 474/502/446
f 473/513/447 421/443/447 419/442/447 475/503/447
f 458/496/448 456/498/448 480/514/448 478/515/448
f 481/516/449 457/499/449 459/497/449 479/517/449
f 478/515/450 480/514/450 482/518/450 484/519/450
f 483/520/451 481/516/451 479/517/451 485/521/451
f 484/519/452 482/518/452 488/522/452 486/523/452
f 489/524/453 483/520/453 485/521/453 487/525/453
f 486/523/454 488/522/454 490/526/454 492/527/454
f 491/528/455 489/524/455 487/525/455 493/529/455
f 464/504/456 476/489/456 486/523/456 492/527/456
f 487/525/457 477/491/457 465/505/457 493/529/457
f 452/488/458 484/519/458 486/523/458 476/489/458
f 487/525/459 485/521/459 453/490/459 477/491/459
f 452/488/460 462/492/460 478/515/460 484/519/460
f 479/517/461 463/493/461 453/490/461 485/521/461
f 458/496/462 478/515/462 462/492/462 460/494/462
f 463/493/463 479/517/463 459/497/463 461/495/463
f 454/500/464 474/502/464 480/514/464 456/498/464
f 481/516/465 475/503/465 455/501/465 457/499/465
f 472/512/466 482/518/466 480/514/466 474/502/466
f 481/516/467 483/520/467 473/513/467 475/503/467
f 470/510/468 488/522/468 482/518/468 472/512/468
f 483/520/469 489/524/469 471/511/469 473/513/469
f 468/508/470 490/526/470 488/522/470 470/510/470
f 489/524/471 491/528/471 469/509/471 471/511/471
f 466/506/472 492/527/472 490/526/472 468/508/472
f 491/528/473 493/529/473 467/507/473 469/509/473
f 464/504/474 492/527/474 466/506/474
f 467/507/475 493/529/475 465/505/475
f 392/433/476 390/437/476 504/530/476 502/531/476
f 505/532/477 391/439/477 393/435/477 503/533/477
f 394/429/478 392/433/478 502/531/478 500/534/478
f 503/533/479 393/435/479 395/431/479 501/535/479
f 396/425/480 394/429/480 500/534/480 498/536/480
f 501/535/481 395/431/481 397/427/481 499/537/481
f 398/538/482 396/425/482 498/536/482 496/539/482
f 499/537/483 397/427/483 399/540/483 497/541/483
f 400/542/484 398/538/484 496/539/484 494/543/484
f 497/541/485 399/540/485 401/544/485 495/545/485
f 388/546/486 400/542/486 494/543/486 506/547/486
f 495/545/487 401/544/487 389/548/487 507/549/487
f 494/543/488 502/531/488 504/530/488 506/547/488
f 505/532/489 503/533/489 495/545/489 507/549/489
f 494/543/490 496/539/490 500/534/490 502/531/490
f 501/535/491 497/541/491 495/545/491 503/533/491
f 496/539/492 498/536/492 500/534/492
f 501/535/493 499/537/493 497/541/493
f 314/550/494 382/551/494 388/546/494 506/547/494
f 389/548/495 383/552/495 315/553/495 507/549/495
f 314/550/496 506/547/496 504/530/496 322/554/496
f 505/532/497 507/549/497 315/553/497 323/555/497
f 320/458/498 322/554/498 504/530/498 390/437/498
f 505/532/499 323/555/499 321/460/499 391/439/499
